<?xml version="1.0" standalone="no"?>
<!DOCTYPE svg PUBLIC "-//W3C//DTD SVG 20010904//EN"
 "http://www.w3.org/TR/2001/REC-SVG-20010904/DTD/svg10.dtd">
<svg version="1.0" xmlns="http://www.w3.org/2000/svg"
 width="1377.000000pt" height="1377.000000pt" viewBox="0 0 1377.000000 1377.000000"
 preserveAspectRatio="xMidYMid meet">
<metadata>
Created by potrace 1.14, written by Peter Selinger 2001-2017
</metadata>
<g transform="translate(0.000000,1377.000000) scale(0.100000,-0.100000)"
fill="#000000" stroke="none">
<path d="M6438 13553 c-40 -10 -14 -23 46 -23 63 0 92 12 60 24 -17 7 -79 6
-106 -1z"/>
<path d="M7425 13530 c-8 -12 17 -23 41 -18 10 1 19 9 22 16 5 15 -54 17 -63
2z"/>
<path d="M7540 13514 c0 -11 8 -14 32 -12 46 4 49 28 4 28 -26 0 -36 -4 -36
-16z"/>
<path d="M7683 13517 c-9 -15 4 -19 116 -37 61 -10 166 -32 233 -48 68 -17
179 -42 248 -57 188 -40 376 -90 528 -141 75 -25 166 -49 202 -53 83 -11 388
-118 343 -120 -33 -2 -113 23 -128 39 -10 11 -22 17 -26 14 -14 -8 -11 -44 4
-46 6 0 17 -2 23 -2 6 -1 22 -9 36 -18 14 -9 53 -26 87 -38 89 -30 120 -26
100 12 -12 22 -10 22 82 -10 44 -15 79 -12 79 6 0 10 -52 34 -113 52 -21 7
-57 22 -80 35 -112 63 -395 148 -817 246 -47 10 -123 28 -170 39 -418 97 -732
150 -747 127z"/>
<path d="M6878 13483 c-10 -2 -18 -11 -18 -18 0 -22 79 -29 253 -22 87 3 183
1 215 -4 148 -25 277 -38 285 -30 13 13 0 30 -31 42 -69 26 -630 52 -704 32z"/>
<path d="M6767 13464 c-14 -14 -7 -25 13 -22 12 2 21 8 21 13 0 12 -24 18 -34
9z"/>
<path d="M6577 13454 c-4 -4 -4 -10 -2 -14 6 -10 55 0 55 11 0 10 -43 12 -53
3z"/>
<path d="M7670 13432 c0 -30 17 -38 110 -51 123 -16 130 -15 130 13 0 34 -14
40 -100 42 -41 0 -90 4 -107 9 -29 7 -33 5 -33 -13z"/>
<path d="M7970 13372 c0 -15 9 -21 38 -26 62 -10 92 -7 92 8 0 14 -11 18 -92
32 -33 5 -38 4 -38 -14z"/>
<path d="M8123 13364 c-20 -9 -15 -20 12 -32 40 -19 57 -15 53 11 -3 22 -37
33 -65 21z"/>
<path d="M5095 13349 c-4 -6 -4 -13 -1 -16 8 -8 36 5 36 17 0 13 -27 13 -35
-1z"/>
<path d="M8300 13310 c0 -5 9 -10 20 -10 11 0 20 5 20 10 0 6 -9 10 -20 10
-11 0 -20 -4 -20 -10z"/>
<path d="M7375 13299 c-4 -6 -5 -12 -3 -15 9 -9 310 -29 315 -21 10 16 -8 21
-115 33 -134 16 -189 17 -197 3z"/>
<path d="M8400 13300 c-13 -9 -13 -11 0 -20 39 -25 250 -51 250 -31 0 14 -37
30 -115 47 -72 16 -115 17 -135 4z"/>
<path d="M7390 13234 c0 -8 9 -14 20 -14 11 0 20 4 20 9 0 5 -9 11 -20 14 -13
3 -20 0 -20 -9z"/>
<path d="M8690 13230 c0 -14 22 -23 140 -63 137 -46 287 -83 296 -74 16 15
-28 43 -88 56 -35 8 -117 31 -182 52 -121 39 -166 47 -166 29z"/>
<path d="M9315 13229 c-9 -14 -4 -18 33 -25 36 -7 44 9 13 26 -25 13 -38 13
-46 -1z"/>
<path d="M8487 13216 c-3 -8 2 -16 14 -19 23 -6 37 12 18 24 -19 12 -26 11
-32 -5z"/>
<path d="M8392 13158 c4 -11 183 -66 268 -83 14 -2 56 -14 95 -25 38 -11 79
-20 90 -20 66 1 -111 67 -309 115 -117 28 -150 31 -144 13z"/>
<path d="M4538 13133 c-10 -2 -18 -11 -18 -20 0 -10 6 -13 16 -9 9 3 22 6 30
6 8 0 14 7 14 15 0 15 -9 17 -42 8z"/>
<path d="M4300 13050 c-176 -68 -362 -153 -403 -184 -18 -14 -43 -26 -55 -26
-20 0 -49 -36 -38 -47 3 -3 20 4 38 15 18 11 56 27 83 35 28 9 115 46 195 82
80 37 181 80 225 96 80 28 109 50 90 68 -7 6 -55 -8 -135 -39z"/>
<path d="M9620 13002 c0 -20 43 -52 70 -52 36 0 38 9 7 38 -22 21 -77 31 -77
14z"/>
<path d="M5025 12916 c-288 -100 -605 -222 -823 -318 -198 -87 -245 -114 -250
-142 -5 -24 19 -17 118 35 255 133 487 221 975 368 104 32 215 92 215 117 0 8
-6 14 -12 13 -7 0 -107 -33 -223 -73z"/>
<path d="M9507 12973 c-4 -3 -7 -9 -7 -13 0 -10 113 -60 134 -60 10 0 44 -19
78 -41 77 -52 190 -105 246 -114 39 -6 43 -5 40 11 -3 18 -21 30 -88 59 -19 8
-49 24 -67 36 -18 11 -64 29 -104 41 -40 11 -84 31 -98 44 -35 33 -116 55
-134 37z"/>
<path d="M9750 12940 c0 -17 39 -50 59 -50 28 0 33 13 15 38 -16 23 -74 32
-74 12z"/>
<path d="M9860 12876 c0 -8 4 -17 9 -20 11 -7 33 18 24 27 -12 12 -33 7 -33
-7z"/>
<path d="M9210 12816 c0 -13 20 -26 41 -26 15 0 10 27 -7 34 -24 9 -34 7 -34
-8z"/>
<path d="M3703 12769 c-32 -20 -43 -39 -23 -39 24 0 78 34 73 46 -7 18 -12 18
-50 -7z"/>
<path d="M9330 12766 c0 -14 94 -58 104 -48 13 12 4 22 -34 42 -46 23 -70 26
-70 6z"/>
<path d="M10075 12730 c-14 -16 -15 -22 -5 -35 11 -13 145 -95 157 -95 5 0
181 -115 516 -338 225 -150 281 -194 607 -481 156 -137 429 -409 498 -496 44
-56 146 -155 160 -155 10 0 111 -127 168 -210 20 -30 58 -84 83 -120 293 -420
451 -683 640 -1070 23 -47 43 -62 55 -42 3 5 -5 24 -18 43 -12 19 -30 63 -40
99 -9 35 -39 101 -66 145 -26 44 -83 150 -125 235 -109 217 -166 316 -224 385
-28 33 -100 131 -162 217 -61 86 -141 191 -177 233 -100 114 -209 244 -252
300 -21 28 -84 93 -141 145 -57 52 -176 162 -264 246 -173 164 -238 220 -421
359 -65 50 -134 105 -154 123 -19 18 -84 66 -145 106 -163 108 -378 248 -422
274 -21 13 -30 21 -21 18 10 -3 20 -1 23 3 5 8 -36 38 -142 105 -51 31 -103
34 -128 6z"/>
<path d="M3578 12699 c-45 -29 -61 -49 -38 -49 21 0 119 55 116 65 -5 19 -31
14 -78 -16z"/>
<path d="M6930 12704 c0 -3 8 -18 19 -32 31 -45 77 -143 97 -207 13 -43 18
-91 18 -170 0 -94 -5 -131 -38 -255 -20 -80 -49 -183 -63 -230 -23 -76 -26
-102 -27 -255 l-1 -170 55 -100 c39 -71 77 -123 130 -177 68 -70 79 -78 114
-78 55 0 233 92 306 157 110 100 200 244 256 408 24 72 26 91 22 185 -6 130
-42 229 -128 359 -60 89 -145 180 -156 168 -4 -4 13 -31 37 -62 149 -187 186
-346 130 -560 -39 -149 -91 -237 -199 -337 -61 -55 -181 -128 -213 -128 -18 0
-139 139 -139 160 0 7 26 59 57 117 43 79 73 120 121 165 35 32 62 61 59 64
-8 8 -179 -130 -235 -190 -29 -31 -54 -56 -56 -56 -4 0 -5 27 -6 148 -1 114
-1 115 48 216 3 5 -2 5 -9 1 -8 -5 -11 -4 -6 1 5 5 16 9 25 9 9 0 19 9 22 20
3 11 35 49 73 84 105 100 81 105 -40 9 -35 -27 -63 -44 -63 -36 0 7 7 72 15
143 8 72 15 131 15 133 0 1 19 23 41 47 47 51 46 71 -2 31 -17 -15 -36 -25
-42 -23 -6 2 -19 46 -29 98 -21 110 -87 253 -144 312 -32 33 -64 48 -64 31z"/>
<path d="M3883 12615 c-18 -8 -101 -57 -185 -111 -84 -53 -175 -110 -203 -127
-27 -17 -73 -46 -102 -65 -35 -22 -59 -31 -72 -27 -14 4 -23 0 -31 -14 -10
-21 -24 -31 -210 -167 -319 -232 -822 -732 -1147 -1141 -44 -56 -143 -191
-219 -300 -76 -109 -158 -225 -182 -258 -24 -33 -68 -101 -98 -151 -56 -95
-167 -260 -205 -304 l-21 -25 14 25 c28 49 160 256 188 295 83 116 348 529
378 589 37 76 69 119 182 245 41 46 120 139 175 206 55 68 175 205 268 304 92
99 167 182 167 185 0 13 -38 3 -87 -22 -70 -36 -165 -116 -358 -299 -88 -84
-178 -170 -200 -190 -23 -21 -51 -51 -63 -68 -12 -16 -22 -25 -22 -19 0 13 65
98 127 166 41 45 56 88 32 88 -23 0 -89 -84 -89 -112 0 -7 -12 -19 -27 -26
-16 -7 -62 -59 -103 -115 -204 -277 -351 -484 -427 -597 -46 -69 -102 -150
-124 -180 -21 -30 -64 -104 -93 -165 -180 -365 -263 -545 -307 -661 -57 -152
-87 -224 -88 -206 -1 14 -31 17 -31 3 0 -5 -3 -17 -7 -27 -5 -14 -2 -16 15
-12 20 6 20 5 5 -27 -9 -19 -21 -31 -29 -28 -20 8 -37 -36 -30 -81 5 -42 4
-48 -74 -256 -17 -46 -34 -105 -37 -130 -3 -25 -12 -55 -19 -67 -8 -12 -32
-88 -54 -169 -39 -141 -55 -184 -66 -184 -3 0 -3 4 1 9 12 21 55 208 55 244 0
52 -16 39 -36 -31 -9 -31 -20 -66 -25 -77 -15 -36 2 34 38 158 34 112 38 167
13 167 -6 0 -15 -12 -21 -27 -14 -38 -49 -216 -44 -222 3 -2 -1 -11 -9 -20 -8
-9 -19 -52 -25 -95 -6 -44 -14 -82 -18 -85 -3 -3 -3 13 1 37 3 24 2 42 -3 42
-18 0 -81 -223 -116 -410 -28 -148 -34 -164 -29 -70 3 47 12 111 20 143 15 64
19 137 6 137 -16 0 -104 -483 -117 -645 -4 -44 -9 -92 -11 -107 -3 -19 2 -32
18 -44 23 -17 23 -19 14 -143 -20 -295 -6 -775 35 -1141 10 -96 23 -231 28
-300 7 -97 22 -173 64 -340 30 -118 69 -276 87 -350 73 -312 273 -879 419
-1185 70 -147 273 -524 354 -660 157 -261 459 -682 685 -954 59 -70 132 -158
162 -195 30 -37 106 -113 170 -169 149 -133 226 -203 330 -303 233 -223 694
-560 986 -719 75 -41 155 -88 178 -103 46 -31 98 -57 351 -175 295 -137 416
-187 790 -327 219 -81 468 -152 690 -194 11 -3 54 -11 95 -20 71 -14 194 -36
325 -56 57 -9 235 -31 375 -46 36 -4 76 -9 90 -11 14 -2 144 -8 290 -14 146
-5 325 -12 398 -15 113 -5 518 15 622 31 14 2 45 6 70 9 25 4 108 15 185 27
77 11 190 26 250 34 61 8 133 23 160 34 28 11 76 21 107 24 31 3 107 19 170
36 62 18 129 36 148 41 328 88 610 183 820 277 25 12 69 31 98 43 57 25 56 24
43 49 -5 9 -6 23 -2 30 6 9 10 5 15 -14 6 -24 10 -26 39 -20 42 8 327 147 497
243 176 99 288 171 325 212 30 32 106 85 225 155 114 67 313 236 293 248 -12
8 -30 -3 -182 -108 -146 -100 -191 -129 -191 -122 0 3 71 54 157 114 87 59
214 153 283 207 69 54 134 106 145 114 30 22 -41 -44 -120 -112 -37 -33 -63
-62 -56 -64 27 -9 219 138 350 268 135 134 133 169 -3 48 -179 -159 -141 -119
304 316 105 102 209 214 240 257 30 43 100 138 156 211 324 427 455 625 782
1183 23 39 63 122 91 185 53 125 186 449 201 490 4 14 34 95 66 180 59 159 73
236 44 234 -14 -1 -14 6 1 70 9 39 24 105 34 146 9 41 34 147 55 235 52 215
73 349 129 840 18 151 34 611 27 771 -5 148 -11 184 -25 184 -25 0 -31 -69
-36 -368 -9 -484 -23 -632 -99 -1047 -8 -44 -31 -142 -50 -217 -20 -76 -51
-198 -70 -270 -80 -312 -104 -387 -211 -658 -67 -168 -89 -221 -145 -345 -10
-22 -37 -83 -60 -135 -23 -52 -56 -108 -72 -125 l-29 -30 24 55 c27 62 69 155
97 215 86 185 218 536 265 700 9 33 45 148 80 255 57 177 87 281 99 350 2 14
16 82 30 152 42 203 84 512 96 699 6 96 15 246 21 334 14 207 17 613 5 625 -5
5 -9 71 -8 147 2 97 -2 154 -13 193 -8 30 -15 75 -15 100 0 25 -11 88 -25 140
-14 56 -25 124 -25 165 0 79 -36 241 -59 268 -14 17 -14 19 1 28 15 8 14 15
-13 74 -22 48 -29 80 -29 124 0 69 -8 95 -43 135 -14 17 -29 48 -32 70 -31
208 -43 255 -100 381 -7 17 -41 95 -74 175 -83 197 -113 255 -131 255 -20 0
-14 -42 11 -77 10 -15 19 -43 19 -61 0 -19 25 -104 56 -188 30 -85 87 -248
126 -364 48 -143 78 -219 96 -237 21 -23 24 -33 18 -66 -3 -24 1 -62 10 -98
31 -112 34 -130 63 -289 66 -360 112 -726 110 -879 l-1 -91 -14 120 c-18 165
-32 271 -54 400 -10 61 -23 148 -29 195 -14 121 -42 235 -138 570 -47 162
-101 355 -119 428 -19 73 -40 145 -47 160 -8 15 -27 65 -42 112 -35 108 -102
264 -172 405 -121 242 -356 667 -389 704 -2 2 -7 2 -10 -2 -10 -10 17 -79 54
-137 43 -67 183 -332 178 -337 -2 -2 -20 29 -41 69 -101 192 -262 440 -373
574 -37 45 -106 140 -154 210 -63 93 -111 151 -172 207 -75 68 -106 89 -106
71 0 -13 26 -52 65 -99 233 -279 496 -697 730 -1160 111 -219 125 -251 195
-435 26 -69 77 -199 112 -290 36 -91 67 -176 70 -190 3 -14 29 -115 57 -225
46 -178 92 -375 106 -454 3 -15 11 -61 19 -102 8 -41 21 -142 30 -224 9 -83
23 -211 31 -285 37 -338 44 -693 20 -1075 -18 -297 -48 -516 -111 -820 -9 -44
-20 -100 -25 -125 -81 -405 -289 -998 -495 -1411 -181 -364 -496 -860 -733
-1154 -186 -230 -427 -479 -478 -491 -35 -8 -63 -32 -63 -54 0 -9 -15 -33 -32
-52 -18 -19 -45 -51 -61 -71 -24 -32 -113 -109 -198 -172 -15 -11 -117 -89
-226 -174 -109 -85 -206 -154 -215 -154 -9 1 -20 -6 -23 -16 -7 -24 -35 -43
-220 -150 -88 -52 -209 -124 -270 -161 -139 -86 -622 -323 -845 -414 -36 -15
-78 -33 -95 -40 -67 -30 -225 -86 -305 -110 -143 -42 -593 -165 -625 -171 -16
-3 -100 -17 -185 -31 -85 -15 -177 -30 -205 -35 -27 -5 -117 -16 -199 -24 -82
-9 -153 -18 -156 -20 -4 -3 -133 -10 -286 -16 -485 -19 -968 11 -1329 82 -512
102 -883 209 -1230 354 -82 34 -178 74 -213 88 -34 14 -122 60 -195 101 -72
41 -162 86 -199 100 -64 24 -188 96 -313 181 -632 432 -923 680 -1415 1212
-57 61 -108 109 -112 107 -15 -9 -8 -30 20 -60 58 -61 124 -144 114 -144 -11
0 -58 51 -152 165 -36 43 -79 94 -96 114 -34 41 -116 147 -256 333 -90 118
-126 174 -251 388 -47 82 -71 130 -63 130 2 0 22 -33 44 -72 22 -40 50 -81 61
-90 12 -10 21 -26 21 -36 0 -21 18 -42 37 -42 8 0 13 13 13 33 0 23 -21 69
-66 148 -265 457 -403 737 -500 1016 -82 232 -153 452 -165 503 -6 25 -12 52
-14 60 -2 8 -22 87 -44 175 -65 261 -89 403 -121 720 -28 267 -31 337 -32 635
0 201 4 379 12 445 6 61 16 189 20 285 9 190 22 275 69 463 17 67 40 167 51
222 22 106 79 324 110 415 10 30 21 76 24 103 7 55 34 145 47 153 5 3 9 23 9
44 0 22 11 68 25 102 75 190 108 290 115 349 6 53 22 96 78 210 39 79 84 167
100 194 81 138 220 379 259 448 43 74 70 108 38 47 -16 -31 -20 -60 -7 -60 10
0 113 156 192 290 34 57 100 153 146 213 47 60 94 123 105 141 20 32 26 91 10
100 -17 11 -188 -132 -287 -240 -139 -150 -247 -262 -238 -244 21 41 181 245
251 320 43 47 145 159 225 250 167 188 431 451 563 562 154 128 456 348 479
348 12 0 65 29 117 66 112 77 308 184 338 184 34 0 71 24 126 80 41 42 47 52
35 60 -8 5 -21 10 -29 10 -23 0 -133 -42 -171 -65 -52 -33 -127 -69 -115 -56
6 6 69 50 140 99 92 62 134 97 145 119 11 24 37 44 103 80 48 26 87 53 87 60
0 17 -27 16 -67 -2z m-3466 -4297 c-3 -7 -5 -2 -5 12 0 14 2 19 5 13 2 -7 2
-19 0 -25z m-22 -81 c-5 -18 -12 -23 -26 -20 -14 4 -19 0 -20 -13 0 -13 -2
-14 -6 -5 -5 11 47 73 55 66 2 -1 0 -14 -3 -28z m-20 -109 c-4 -29 -13 -78
-21 -108 l-14 -55 6 55 c6 62 25 160 31 160 3 0 1 -24 -2 -52z m-50 -513 c-3
-44 -10 -113 -15 -152 -6 -40 -13 -149 -16 -243 -4 -94 -10 -168 -13 -165 -3
3 -4 23 -2 44 1 22 -2 42 -8 45 -22 14 -33 -42 -38 -198 -2 -88 -7 -163 -10
-166 -3 -3 -3 119 0 270 4 256 21 456 37 430 11 -18 40 0 40 25 0 12 -7 28
-15 35 -20 17 -19 30 7 57 20 22 21 24 5 64 -13 33 -14 45 -5 57 10 12 14 11
26 -5 10 -13 12 -38 7 -98z m-87 -1095 c0 -50 -2 -68 -8 -55 -5 11 -8 74 -8
140 1 106 2 112 8 55 4 -36 8 -99 8 -140z m31 -319 c1 -77 -6 -60 -13 29 -3
47 -2 66 4 50 4 -14 8 -49 9 -79z m-50 25 c1 -42 -5 -29 -12 24 -4 30 -3 38 3
25 5 -11 9 -33 9 -49z m134 -276 c3 -44 2 -63 -3 -45 -8 30 -13 132 -6 124 2
-2 6 -38 9 -79z m-4 -275 c0 -11 -7 3 -14 30 -8 28 -14 59 -14 70 1 11 7 -2
15 -30 7 -27 13 -59 13 -70z m12362 -1924 c-64 -125 -301 -501 -317 -501 -2 0
13 26 34 58 47 68 225 361 273 449 43 78 50 74 10 -6z m-332 -530 c-8 -11 -27
-39 -44 -63 -46 -66 -156 -208 -161 -208 -2 0 12 21 31 48 20 26 67 91 106
145 39 53 73 97 76 97 3 0 -1 -9 -8 -19z m-327 -438 c-11 -16 -39 -48 -61 -73
-27 -29 -22 -19 16 28 57 72 82 96 45 45z m-1905 -1849 c-26 -14 -53 -36 -59
-49 -9 -21 -18 -25 -52 -25 -25 0 -36 4 -30 9 13 14 167 91 179 91 5 -1 -12
-12 -38 -26z m-301 -182 c-15 -15 -16 -15 -16 5 0 12 6 23 13 26 19 6 21 -13
3 -31z m-1361 -198 c-38 -8 -74 -12 -80 -10 -12 4 90 24 125 24 14 0 -6 -7
-45 -14z m-1108 -410 c-3 -3 -12 -4 -19 -1 -8 3 -5 6 6 6 11 1 17 -2 13 -5z"/>
<path d="M254 7305 c-7 -28 0 -55 16 -55 5 0 10 18 10 40 0 44 -16 54 -26 15z"/>
<path d="M3389 12587 c-24 -13 -60 -33 -79 -46 -19 -12 -76 -48 -125 -79 -109
-69 -185 -129 -185 -148 0 -8 5 -14 11 -14 13 0 247 161 284 196 15 13 31 24
36 24 16 0 94 48 114 70 25 28 1 27 -56 -3z"/>
<path d="M10807 12439 c11 -12 26 -18 33 -14 13 8 -16 34 -40 35 -11 0 -9 -6
7 -21z"/>
<path d="M3820 12395 c0 -8 9 -15 20 -15 11 0 20 7 20 15 0 8 -9 15 -20 15
-11 0 -20 -7 -20 -15z"/>
<path d="M4987 12332 c-10 -10 -17 -35 -17 -55 0 -71 67 -101 115 -52 30 30
32 64 4 99 -25 32 -77 36 -102 8z"/>
<path d="M5262 12320 c-87 -54 -78 -198 15 -237 68 -28 141 11 163 87 31 108
-87 208 -178 150z"/>
<path d="M6497 12289 c-164 -146 -246 -389 -211 -629 16 -108 30 -154 82 -259
70 -143 141 -215 291 -296 109 -58 154 -73 241 -81 78 -8 85 -1 52 47 -9 15
-30 45 -45 68 -37 56 -85 177 -98 249 -16 84 -5 214 36 417 31 153 36 195 33
277 -3 69 -8 102 -18 113 -13 13 -15 -2 -15 -123 l0 -137 -58 -165 c-73 -208
-87 -274 -87 -411 l0 -109 -38 19 c-21 10 -58 41 -82 68 -124 132 -180 292
-180 509 0 122 27 221 100 369 32 66 58 121 56 122 -1 2 -28 -20 -59 -48z"/>
<path d="M2905 12255 c-27 -24 -55 -44 -60 -45 -6 0 -26 -13 -45 -29 -28 -24
-33 -32 -22 -42 10 -11 19 -6 50 22 20 20 59 48 85 63 49 28 67 51 51 66 -5 5
-30 -10 -59 -35z"/>
<path d="M11030 12151 c0 -5 6 -14 14 -20 16 -13 32 2 21 19 -8 12 -35 13 -35
1z"/>
<path d="M4733 12106 c-136 -45 -223 -111 -343 -261 -111 -141 -172 -304 -174
-470 -1 -77 4 -105 33 -193 60 -185 134 -272 321 -383 74 -44 75 -44 170 -43
112 0 150 14 307 105 110 64 156 74 213 44 25 -13 30 -22 30 -50 0 -22 -8 -43
-20 -55 -23 -23 -19 -40 9 -40 22 0 76 56 90 93 18 47 13 97 -14 144 -32 54
-69 73 -140 73 -73 0 -108 -16 -178 -83 -85 -80 -166 -96 -296 -57 -70 20
-175 78 -197 108 -7 9 -27 60 -45 112 -40 121 -49 239 -25 355 31 151 158 295
341 386 90 45 111 51 181 56 74 5 83 3 137 -26 33 -17 63 -29 68 -26 4 3 34
-5 66 -19 79 -33 129 -39 182 -24 59 18 66 38 13 38 -50 0 -129 40 -224 115
-39 30 -77 55 -85 55 -7 0 -21 4 -31 9 -52 28 -125 51 -158 50 -22 0 -66 2
-99 5 -46 4 -76 0 -132 -18z"/>
<path d="M8910 12083 c-47 -9 -145 -61 -202 -107 -70 -56 -133 -133 -165 -202
-33 -73 -48 -207 -33 -290 17 -88 100 -217 129 -200 5 3 -5 32 -22 63 -31 56
-32 62 -32 178 1 211 58 326 197 396 128 65 293 77 392 30 86 -42 196 -158
196 -208 0 -12 -2 -23 -5 -23 -2 0 -26 22 -53 49 -52 52 -112 87 -201 116 -97
32 -209 5 -306 -72 -139 -110 -167 -328 -60 -462 20 -25 94 -107 166 -183 73
-76 140 -149 150 -162 31 -39 75 -137 89 -195 17 -71 7 -207 -18 -264 -21 -46
-82 -112 -114 -123 -24 -7 -18 -28 10 -32 31 -5 99 34 158 89 71 68 107 149
108 244 1 117 -14 139 -265 390 -121 121 -225 229 -231 239 -32 58 -25 151 19
243 25 54 78 105 143 138 46 24 142 24 195 -1 l40 -18 -67 -6 c-127 -12 -218
-108 -218 -231 0 -102 86 -226 173 -251 23 -6 98 -12 167 -12 118 -1 130 1
202 30 178 72 265 184 284 366 16 163 -89 319 -288 423 -73 39 -104 32 -35 -8
60 -36 138 -122 172 -191 40 -82 46 -194 15 -285 -27 -82 -75 -156 -133 -207
-54 -48 -165 -104 -204 -104 -25 1 -23 3 20 24 126 62 187 185 187 377 0 137
-33 230 -112 315 -53 58 -108 89 -203 113 -74 20 -181 26 -245 14z m303 -504
c54 -25 75 -114 36 -162 -11 -15 -37 -32 -59 -38 -54 -16 -109 11 -128 63 -18
46 -9 82 28 119 31 31 79 38 123 18z"/>
<path d="M10700 12072 c0 -12 34 -42 48 -42 18 0 14 21 -5 36 -20 15 -43 18
-43 6z"/>
<path d="M11156 12052 c-4 -7 145 -132 158 -132 3 0 6 8 6 18 -1 9 -32 40 -70
70 -70 52 -85 59 -94 44z"/>
<path d="M11360 11879 c0 -14 30 -38 48 -39 18 0 15 21 -5 36 -22 17 -43 18
-43 3z"/>
<path d="M2395 11759 c-9 -27 -3 -32 20 -15 10 7 15 18 11 24 -11 18 -24 14
-31 -9z"/>
<path d="M11390 11603 c1 -14 27 -43 39 -43 15 0 14 23 -1 38 -13 13 -38 16
-38 5z"/>
<path d="M11860 11523 c1 -14 27 -43 39 -43 14 0 14 11 -3 33 -13 17 -36 24
-36 10z"/>
<path d="M5318 11464 c-32 -17 -58 -62 -58 -99 0 -30 20 -33 44 -6 11 12 48
25 107 36 101 20 111 33 49 65 -46 23 -104 25 -142 4z"/>
<path d="M5344 11250 c-73 -19 -187 -71 -199 -91 -5 -7 6 -9 39 -4 53 8 136
-9 185 -38 40 -24 71 -72 71 -109 0 -16 2 -28 5 -28 16 0 63 32 90 60 26 27
30 39 30 83 -1 60 -24 106 -65 131 -35 20 -67 20 -156 -4z"/>
<path d="M10454 11193 c4 -15 23 -62 43 -103 32 -66 57 -96 204 -242 338 -338
405 -451 478 -808 23 -109 50 -103 77 17 26 117 16 273 -25 382 -44 121 -101
211 -205 325 -90 99 -180 166 -371 276 -32 19 -93 68 -133 108 -65 64 -74 70
-68 45z"/>
<path d="M8643 11203 c-13 -2 -36 -18 -53 -34 -87 -87 10 -233 123 -186 40 17
77 68 77 107 0 38 -36 90 -75 106 -19 8 -38 13 -42 13 -4 -1 -18 -4 -30 -6z"/>
<path d="M10890 11197 c-38 -19 -55 -61 -40 -98 15 -35 37 -49 79 -49 59 0 94
87 51 130 -11 11 -24 20 -29 20 -5 0 -15 2 -23 5 -7 3 -24 -1 -38 -8z"/>
<path d="M12150 11187 c0 -8 9 -22 19 -31 23 -21 37 -6 21 24 -12 23 -40 27
-40 7z"/>
<path d="M4215 11034 c-12 -65 -7 -144 10 -170 8 -13 41 -48 72 -77 63 -59 83
-97 83 -160 0 -62 -43 -107 -93 -98 -5 1 -7 -6 -5 -16 5 -26 66 -44 114 -33
27 6 53 24 87 59 41 43 47 55 47 91 0 62 -24 102 -102 172 -155 140 -162 148
-182 241 -9 38 -22 34 -31 -9z"/>
<path d="M8893 10938 c-65 -17 -84 -94 -37 -142 46 -46 114 -31 140 29 29 69
-30 133 -103 113z"/>
<path d="M3150 10907 c0 -29 -205 -476 -214 -466 -2 2 -23 49 -46 104 -23 55
-45 103 -49 108 -4 4 -32 -37 -62 -90 -93 -167 -184 -241 -355 -287 -85 -23
-88 -24 -60 -35 15 -6 40 -20 54 -31 31 -25 91 -26 163 -3 75 24 161 111 218
222 46 89 44 89 81 19 38 -71 37 -74 -153 -326 -71 -95 -127 -176 -123 -179 4
-4 63 20 131 55 102 52 133 73 182 125 65 70 157 217 207 332 18 41 35 77 38
80 2 3 20 -30 38 -73 72 -164 177 -324 252 -383 21 -17 87 -55 147 -85 100
-49 131 -61 131 -50 0 3 -57 80 -126 173 -158 210 -174 235 -174 274 0 18 12
52 26 77 l26 44 18 -30 c10 -16 31 -55 47 -88 56 -115 163 -194 274 -202 49
-4 62 0 95 22 21 14 44 26 51 26 7 0 13 4 13 9 0 5 -32 16 -71 25 -161 36
-272 126 -365 296 -27 49 -52 90 -55 90 -3 0 -25 -47 -49 -105 -23 -58 -46
-108 -50 -110 -8 -5 -104 194 -175 363 -42 101 -65 135 -65 99z"/>
<path d="M10730 10665 c0 -3 11 -22 24 -43 58 -89 65 -237 20 -449 -14 -65
-14 -77 1 -128 41 -141 198 -210 281 -124 26 27 29 37 28 92 -2 134 -78 327
-188 482 -77 107 -166 198 -166 170z"/>
<path d="M8874 10615 c-19 -29 -11 -60 20 -81 56 -36 117 43 70 90 -24 25 -71
20 -90 -9z"/>
<path d="M12647 10567 c-6 -15 15 -47 32 -47 13 0 14 2 1 34 -10 28 -25 34
-33 13z"/>
<path d="M12330 10536 c0 -27 7 -39 29 -55 32 -23 41 -26 41 -12 0 14 -54 100
-62 101 -5 0 -8 -15 -8 -34z"/>
<path d="M12762 10378 c7 -30 94 -167 106 -168 21 0 13 22 -34 103 -25 43 -51
77 -60 77 -9 0 -14 -6 -12 -12z"/>
<path d="M1012 10123 c-36 -53 -130 -218 -181 -320 -73 -146 -143 -327 -186
-478 -9 -33 -21 -73 -26 -89 -11 -36 -12 -66 -1 -66 12 0 85 175 128 305 19
61 64 166 98 235 143 282 196 384 206 394 15 15 12 46 -4 46 -8 0 -23 -12 -34
-27z"/>
<path d="M3099 10075 c-38 -20 -60 -60 -61 -107 -1 -49 25 -86 76 -112 32 -16
44 -17 76 -7 137 41 110 242 -32 241 -18 -1 -45 -7 -59 -15z"/>
<path d="M11052 9827 c-48 -27 -70 -89 -49 -139 20 -47 50 -70 100 -75 39 -5
48 -1 80 27 61 53 60 135 -3 180 -32 23 -93 26 -128 7z"/>
<path d="M10872 9584 c-41 -28 -16 -94 36 -94 21 0 52 34 52 57 0 17 -36 53
-53 53 -7 0 -23 -7 -35 -16z"/>
<path d="M1344 9562 c-27 -17 -66 -132 -46 -132 18 0 72 94 72 126 0 15 -9 18
-26 6z"/>
<path d="M1912 9431 c-93 -59 -97 -193 -7 -235 66 -32 154 7 187 81 16 36 17
50 8 77 -26 81 -120 119 -188 77z"/>
<path d="M11416 9234 c-20 -51 5 -152 73 -296 29 -62 113 -192 223 -348 l46
-64 -111 -126 c-61 -69 -112 -127 -113 -129 -2 -2 -30 18 -64 44 -98 76 -171
192 -193 306 -17 92 -27 55 -16 -56 18 -188 62 -304 145 -388 43 -44 45 -49
35 -75 -53 -132 -53 -359 0 -475 17 -38 26 -26 34 49 4 36 16 98 26 137 22 79
83 217 96 217 4 0 62 -39 128 -85 65 -47 127 -85 136 -85 9 0 61 32 115 71 55
39 111 77 126 85 27 14 29 13 48 -18 44 -72 92 -228 105 -341 8 -73 23 -70 49
9 29 92 27 294 -5 393 l-25 75 45 45 c48 50 102 156 120 236 14 65 34 256 27
262 -7 7 -10 -3 -30 -85 -28 -113 -94 -207 -202 -290 l-42 -32 -114 128 -114
127 93 134 c115 162 184 281 224 384 37 97 43 127 35 172 -8 43 -21 45 -30 4
-16 -81 -114 -253 -233 -411 -43 -57 -181 -198 -194 -198 -4 0 -47 42 -96 94
-144 150 -321 435 -323 518 0 23 -17 31 -24 12z m539 -974 c48 -63 82 -116 76
-118 -6 -2 -45 -46 -86 -98 -42 -52 -80 -94 -85 -94 -5 0 -22 16 -37 36 -15
20 -54 67 -85 104 -53 63 -56 69 -40 83 9 9 49 59 87 111 39 52 73 94 77 93 3
-1 45 -54 93 -117z"/>
<path d="M11791 9154 c-77 -64 -32 -187 69 -187 42 0 75 20 95 58 38 69 -15
155 -95 155 -27 0 -48 -8 -69 -26z"/>
<path d="M1801 8976 c-90 -35 -164 -89 -206 -152 -78 -118 -115 -288 -81 -377
19 -51 83 -116 146 -149 65 -33 205 -33 270 1 73 38 101 61 131 109 51 80 35
185 -38 254 -55 52 -105 55 -140 9 -27 -36 -16 -47 50 -49 80 -3 107 -28 107
-101 0 -81 -58 -131 -154 -131 -57 0 -130 49 -171 115 -39 64 -47 169 -18 236
26 57 66 104 117 137 43 27 146 62 183 62 61 0 238 -142 269 -217 39 -93 24
-254 -32 -351 -84 -142 -262 -215 -405 -166 -77 26 -191 25 -245 -4 -84 -43
-124 -120 -104 -200 27 -110 90 -158 194 -149 34 3 71 8 84 12 21 7 22 5 22
-63 0 -61 3 -75 26 -101 29 -34 89 -57 127 -47 34 8 84 51 103 89 25 47 11
113 -35 158 -53 53 -89 60 -202 38 -100 -19 -148 -23 -174 -13 -41 16 -59 118
-30 174 8 15 29 37 47 48 58 36 93 36 233 1 80 -20 157 -33 200 -33 64 -1 76
2 129 34 129 78 222 201 246 327 35 177 -87 371 -299 476 -79 39 -89 42 -185
44 -87 3 -110 0 -165 -21z"/>
<path d="M450 8894 c0 -31 23 -28 28 4 2 15 -2 22 -12 22 -11 0 -16 -9 -16
-26z"/>
<path d="M357 8888 c-4 -12 -1 -26 6 -30 14 -8 13 -10 21 25 8 34 -19 39 -27
5z"/>
<path d="M11432 8674 c-89 -62 -47 -195 61 -194 62 1 107 46 107 108 0 50 -54
102 -107 102 -21 0 -49 -7 -61 -16z"/>
<path d="M12177 8670 c-36 -29 -50 -83 -33 -125 19 -44 52 -65 104 -65 80 0
125 78 90 155 -24 54 -113 73 -161 35z"/>
<path d="M237 8363 c-13 -12 -7 -33 8 -33 8 0 15 9 15 20 0 20 -11 26 -23 13z"/>
<path d="M13544 7628 c3 -13 6 -31 6 -40 0 -10 7 -18 15 -18 17 0 19 18 5 54
-12 32 -35 35 -26 4z"/>
<path d="M13640 7300 c0 -29 4 -40 15 -40 11 0 15 11 15 40 0 29 -4 40 -15 40
-11 0 -15 -11 -15 -40z"/>
<path d="M12296 7288 c-17 -22 -63 -51 -138 -88 -121 -59 -148 -85 -169 -163
-8 -31 -6 -56 10 -125 12 -56 16 -91 10 -98 -5 -7 -32 -22 -60 -33 -48 -21
-52 -21 -99 -6 -62 20 -117 74 -126 121 -4 21 -2 59 5 86 13 60 14 108 1 108
-5 0 -12 -17 -16 -37 -4 -21 -16 -58 -27 -83 -15 -33 -21 -68 -21 -131 -1 -65
-5 -92 -17 -105 -9 -11 -29 -39 -44 -64 -34 -56 -51 -70 -86 -70 -34 0 -52 24
-80 107 -12 37 -26 63 -35 63 -7 0 -12 -6 -9 -12 2 -7 6 -44 9 -82 5 -73 20
-104 67 -137 69 -50 126 -24 158 74 12 35 32 74 44 85 l22 21 44 -30 c79 -52
158 -36 261 56 28 25 53 45 56 45 3 0 21 -12 39 -26 48 -36 99 -40 197 -16
144 36 156 37 188 13 16 -11 33 -21 38 -21 5 0 18 -19 28 -42 25 -55 25 -160
1 -205 -43 -81 -149 -143 -242 -143 -37 0 -77 16 -208 82 -141 71 -169 81
-213 81 -99 -1 -200 -78 -229 -177 -40 -132 7 -237 135 -305 52 -28 76 -34
144 -38 70 -4 86 -1 114 16 31 20 50 46 40 57 -3 2 -36 -7 -73 -21 -44 -17
-78 -24 -96 -20 -66 15 -140 149 -125 227 14 77 81 141 161 152 59 9 130 -11
220 -65 39 -23 89 -49 112 -59 138 -61 259 -18 324 116 31 62 34 75 33 159 -1
108 -19 155 -91 235 -71 79 -125 102 -249 104 -117 3 -147 16 -170 71 -18 45
-18 109 1 149 10 21 42 49 91 80 75 49 114 87 114 112 0 23 -17 16 -44 -18z"/>
<path d="M13580 7270 c0 -27 5 -50 10 -50 6 0 10 23 10 50 0 28 -4 50 -10 50
-5 0 -10 -22 -10 -50z"/>
<path d="M1200 7264 c0 -9 19 -46 41 -82 23 -36 66 -115 95 -176 64 -131 69
-174 28 -243 -30 -51 -27 -68 13 -77 64 -16 156 -71 198 -119 82 -90 184 -279
280 -515 20 -51 35 -95 32 -98 -3 -3 -45 28 -93 71 -81 70 -209 154 -220 143
-2 -3 62 -72 144 -154 105 -106 186 -200 279 -324 134 -179 165 -232 223 -377
18 -46 36 -83 40 -83 30 0 26 132 -6 228 -29 89 -57 139 -166 310 -44 68 -95
158 -114 200 -39 86 -61 129 -176 350 -44 83 -77 152 -75 152 3 0 41 -42 85
-92 44 -51 143 -159 220 -240 115 -120 147 -161 174 -218 35 -74 54 -91 43
-37 -27 137 -77 216 -312 492 -248 293 -357 429 -525 653 -104 138 -193 252
-198 252 -6 0 -10 -7 -10 -16z"/>
<path d="M1130 6910 c-27 -27 -26 -75 2 -94 29 -21 51 -20 78 2 43 35 15 112
-41 112 -10 0 -28 -9 -39 -20z"/>
<path d="M11505 6267 c-19 -44 16 -192 67 -277 45 -75 120 -123 293 -189 205
-77 202 -76 235 -141 47 -92 140 -161 221 -162 78 -1 185 92 209 184 6 22 8
59 5 82 -8 50 -49 144 -75 171 -10 11 -28 30 -40 43 -11 12 -28 22 -37 22 -12
0 -7 -9 18 -30 43 -35 89 -126 89 -176 0 -92 -96 -184 -193 -184 -27 0 -89 28
-114 52 -29 27 -29 46 2 99 38 67 31 109 -22 137 -18 10 -41 8 -115 -8 -103
-23 -180 -18 -280 20 -104 39 -221 157 -232 234 -18 122 -23 140 -31 123z"/>
<path d="M2356 5740 c-40 -36 -51 -70 -36 -116 16 -46 54 -74 102 -74 32 0 47
7 74 34 56 56 44 135 -26 171 -44 23 -76 18 -114 -15z"/>
<path d="M11897 5552 c-35 -38 -10 -112 37 -112 9 0 28 11 41 24 27 27 25 46
-8 84 -25 27 -48 28 -70 4z"/>
<path d="M13406 5085 c-10 -28 -7 -45 9 -45 8 0 15 9 15 20 0 11 0 23 1 27 1
15 -19 13 -25 -2z"/>
<path d="M11997 5064 c-3 -4 1 -23 9 -43 28 -65 54 -195 54 -266 0 -82 -29
-197 -68 -270 -44 -81 -176 -206 -264 -249 -150 -73 -327 -85 -493 -32 -178
56 -292 166 -375 361 -33 77 -34 85 -35 205 0 95 5 140 19 188 11 34 16 65 12
69 -25 25 -92 -93 -120 -211 -10 -42 -20 -76 -22 -76 -3 0 -21 7 -41 15 -43
18 -73 19 -124 3 -46 -13 -79 -42 -79 -68 0 -24 26 -26 54 -5 25 19 87 19 129
1 43 -17 63 -50 76 -122 13 -70 39 -140 86 -234 19 -38 35 -72 35 -75 0 -3
-15 -5 -34 -5 -41 0 -113 -25 -139 -48 -34 -29 -77 -94 -77 -114 0 -30 30 -88
46 -88 10 0 14 13 14 44 0 50 34 100 79 118 34 13 175 12 201 -2 11 -6 48 -32
83 -58 34 -26 92 -61 129 -76 l66 -28 -24 -36 c-14 -19 -39 -65 -57 -101 -53
-109 -42 -239 28 -319 40 -45 110 -82 155 -82 36 0 41 25 7 34 -66 16 -130
115 -131 201 -1 131 151 275 290 275 38 0 159 27 186 41 15 8 18 6 18 -14 0
-52 33 -132 69 -168 61 -61 163 -78 207 -34 33 33 24 46 -22 32 -37 -11 -95 2
-121 29 -37 36 -44 138 -14 194 10 19 36 47 59 63 22 15 55 46 74 70 18 23 56
73 86 110 l53 68 32 -19 c46 -28 82 -34 128 -22 47 13 119 74 119 101 0 27
-20 23 -60 -11 -19 -16 -42 -30 -50 -31 -52 -4 -96 17 -114 56 -14 29 -14 43
1 145 16 105 16 119 0 211 -18 109 -50 194 -91 245 -27 34 -37 40 -49 28z"/>
<path d="M3230 5002 c-25 -1 -74 -12 -110 -24 -83 -27 -168 -107 -193 -182
-27 -80 -17 -217 19 -247 12 -10 14 -2 14 45 0 97 37 159 120 201 139 70 338
40 416 -63 35 -45 62 -118 70 -184 7 -65 -16 -183 -48 -241 -28 -51 -84 -76
-175 -76 -98 -1 -120 15 -58 45 74 35 153 151 162 238 7 72 0 99 -43 146 -48
53 -101 68 -159 46 -49 -19 -78 -48 -94 -95 -17 -53 -14 -85 14 -111 28 -26
31 -23 14 14 -24 52 17 116 75 116 18 0 48 -10 67 -23 27 -18 36 -33 46 -77
23 -106 -18 -194 -111 -239 -62 -31 -118 -26 -258 19 -259 85 -259 85 -428 84
-120 0 -170 -4 -220 -18 -95 -27 -236 -96 -308 -151 -101 -76 -182 -186 -182
-247 0 -19 17 -6 93 71 106 109 181 151 307 172 98 16 378 -8 595 -50 219 -43
373 -64 424 -57 81 11 148 51 241 142 129 126 168 215 157 358 -8 104 -53 204
-136 299 -53 60 -184 97 -311 89z"/>
<path d="M3836 4444 c-3 -9 -6 -26 -6 -39 0 -44 -39 -148 -74 -199 -71 -103
-157 -149 -353 -187 -105 -21 -124 -22 -207 -11 -50 6 -174 35 -276 63 -227
63 -299 68 -425 26 -44 -15 -91 -36 -105 -48 l-25 -21 30 6 c131 26 211 17
438 -50 194 -57 305 -76 442 -76 93 0 122 4 184 25 220 77 401 295 401 483 0
44 -12 58 -24 28z"/>
<path d="M2243 4100 c-22 -5 -58 -18 -80 -29 -70 -36 -172 -131 -201 -186 -16
-32 -24 -107 -15 -149 11 -50 31 -59 25 -12 -2 20 4 52 16 79 20 45 33 57 169
150 73 50 181 139 182 150 1 9 -40 7 -96 -3z"/>
<path d="M4085 3883 c-26 -6 -44 -23 -24 -23 26 0 59 12 59 21 0 9 -3 10 -35
2z"/>
<path d="M4175 3860 c3 -5 11 -10 16 -10 6 0 7 5 4 10 -3 6 -11 10 -16 10 -6
0 -7 -4 -4 -10z"/>
<path d="M4232 3803 c26 -59 21 -97 -32 -231 -22 -57 -40 -109 -40 -115 1 -23
54 90 85 181 l32 94 16 -40 c25 -62 40 -169 33 -230 -13 -108 -56 -166 -200
-267 -67 -47 -69 -47 -64 -22 9 45 -5 31 -40 -41 -18 -37 -45 -89 -59 -116
-32 -58 -44 -146 -20 -146 8 0 21 10 29 23 9 12 62 51 119 87 175 108 237 182
274 325 22 86 20 257 -4 334 -28 91 -111 211 -145 211 -3 0 4 -21 16 -47z"/>
<path d="M9901 3674 c-103 -106 -126 -154 -147 -306 -16 -112 -16 -116 6 -218
19 -92 62 -225 158 -485 34 -93 45 -156 34 -204 l-7 -34 -100 107 c-118 127
-191 185 -300 237 -80 39 -202 76 -213 65 -3 -3 -3 -7 -1 -9 2 -1 37 -24 78
-51 100 -65 157 -120 258 -250 123 -157 169 -233 199 -325 14 -45 30 -81 35
-81 4 0 35 35 68 78 62 80 203 223 306 308 33 28 186 144 340 258 305 227 301
224 294 230 -15 15 -553 -319 -783 -485 l-58 -42 8 84 c20 214 2 325 -103 624
-76 219 -77 221 -77 325 -1 94 2 110 23 147 14 24 42 55 63 69 36 25 42 44 14
44 -7 0 -50 -39 -95 -86z"/>
<path d="M1720 3492 c0 -14 59 -92 70 -92 19 0 10 42 -9 47 -11 3 -21 15 -23
26 -3 21 -38 38 -38 19z"/>
<path d="M4638 3398 c-5 -85 -52 -183 -116 -246 -34 -33 -79 -61 -145 -91 -54
-24 -97 -47 -97 -51 0 -11 38 -20 84 -20 90 0 186 82 253 218 32 64 39 88 42
155 4 97 -15 129 -21 35z"/>
<path d="M10302 3435 c-37 -16 -71 -80 -72 -133 0 -94 97 -149 193 -108 45 19
68 48 74 94 14 101 -102 188 -195 147z"/>
<path d="M4122 3385 c-14 -30 -16 -54 -4 -39 15 17 32 64 23 64 -4 0 -13 -11
-19 -25z"/>
<path d="M1831 3328 c12 -22 52 -80 112 -163 15 -22 35 -44 43 -48 8 -4 14
-14 14 -22 0 -22 50 -75 71 -75 27 0 24 6 -23 59 -24 26 -72 90 -107 142 -77
114 -90 129 -108 129 -11 0 -11 -4 -2 -22z"/>
<path d="M12687 3302 c-21 -23 -22 -42 -3 -42 16 0 48 45 39 54 -10 10 -19 7
-36 -12z"/>
<path d="M12627 3213 c-27 -43 -57 -99 -57 -108 0 -3 6 -5 13 -5 14 0 87 105
87 126 0 29 -21 23 -43 -13z"/>
<path d="M12678 3195 c-16 -34 -1 -45 23 -16 23 28 24 41 4 41 -9 0 -21 -11
-27 -25z"/>
<path d="M12447 2948 c-33 -47 -46 -73 -39 -80 6 -6 15 -7 20 -4 17 10 92 127
92 142 0 31 -28 9 -73 -58z"/>
<path d="M2120 2967 c0 -31 29 -76 60 -92 44 -23 39 0 -15 60 -31 35 -44 45
-45 32z"/>
<path d="M12307 2686 c-114 -146 -207 -270 -207 -275 0 -23 20 -8 86 67 87 97
192 230 278 351 61 86 78 121 58 121 -4 0 -101 -119 -215 -264z"/>
<path d="M3463 2920 c-45 -9 -104 -38 -143 -69 -32 -26 -11 -27 32 -2 48 28
143 44 212 37 73 -7 141 -38 236 -105 40 -28 75 -49 78 -46 3 2 -1 19 -8 37
-41 104 -120 150 -269 154 -53 2 -115 -1 -138 -6z"/>
<path d="M4365 2868 c4 -13 12 -79 16 -148 12 -163 25 -233 56 -297 51 -103
208 -229 341 -274 102 -35 292 -29 292 9 0 4 -18 8 -39 8 -59 3 -94 29 -182
137 -78 95 -109 124 -74 70 33 -51 78 -107 124 -155 l45 -48 -34 0 c-110 0
-264 90 -310 180 -20 40 -37 121 -44 224 -5 68 -5 68 14 51 33 -30 35 -8 2 29
-16 19 -45 62 -62 95 -35 64 -108 141 -136 141 -12 0 -15 -5 -9 -22z"/>
<path d="M4103 2850 c-47 -29 -68 -74 -54 -120 15 -49 51 -81 100 -87 37 -5
44 -2 81 35 31 31 40 47 40 73 0 51 -32 96 -77 108 -50 14 -53 14 -90 -9z"/>
<path d="M12301 2765 c-17 -20 -40 -55 -52 -78 -12 -23 -59 -81 -104 -128 -89
-93 -142 -165 -130 -177 10 -10 175 169 175 191 0 9 7 17 15 17 9 0 19 8 22
18 4 9 13 22 20 27 29 23 111 139 106 152 -8 20 -18 16 -52 -22z"/>
<path d="M8850 2673 c-14 -9 -123 -118 -242 -242 -327 -339 -513 -573 -633
-796 -27 -49 -71 -126 -98 -170 -46 -75 -48 -78 -42 -40 12 68 35 124 123 300
110 221 148 286 247 425 45 63 90 129 99 147 29 57 15 88 -16 36 -23 -38 -187
-225 -343 -390 -72 -76 -154 -165 -183 -198 l-52 -60 24 55 c13 30 40 89 60
130 39 81 45 132 20 168 -22 31 -50 27 -100 -14 -75 -61 -154 -185 -218 -343
-33 -82 -51 -101 -93 -101 -18 0 -33 -4 -33 -8 0 -17 37 -42 62 -42 29 0 44
15 127 133 55 76 95 116 106 105 2 -2 -5 -30 -16 -63 -11 -33 -26 -87 -33
-120 -18 -75 -32 -265 -20 -265 5 0 22 25 38 56 46 87 199 316 235 348 l31 30
-31 -90 c-16 -49 -52 -174 -79 -279 -27 -104 -69 -250 -94 -324 -42 -124 -49
-159 -27 -135 5 5 19 38 31 74 41 120 98 229 158 302 32 40 93 125 134 188 79
122 154 219 301 390 121 141 147 163 147 124 0 -30 53 -127 91 -165 36 -36
139 -97 139 -83 0 4 -18 22 -39 41 -56 48 -92 125 -92 200 -1 87 12 124 92
263 83 146 120 200 171 255 30 34 108 156 108 171 0 10 -37 2 -60 -13z"/>
<path d="M3591 2664 c-120 -32 -245 -109 -316 -193 -49 -60 -97 -156 -93 -189
l3 -27 20 33 c30 50 74 70 208 92 67 12 124 24 127 27 9 10 -164 -7 -220 -22
-66 -18 -60 -17 -60 -5 0 24 121 129 181 158 117 54 179 49 339 -27 71 -33 81
-41 63 -47 -33 -9 -29 -28 5 -19 15 4 75 8 133 9 83 2 114 7 144 22 51 27 54
40 9 49 -20 3 -91 35 -158 69 -67 35 -142 68 -168 75 -62 15 -151 13 -217 -5z"/>
<path d="M5537 2553 c-7 -12 -70 -168 -102 -251 -73 -195 -109 -418 -85 -531
17 -80 57 -161 114 -234 58 -71 112 -111 247 -182 119 -62 175 -106 218 -169
34 -50 61 -133 61 -192 0 -25 6 -47 15 -54 13 -11 18 -6 34 31 10 24 24 78 31
119 24 149 52 171 257 209 164 30 200 46 241 106 23 33 27 51 27 105 0 53 -6
77 -32 130 -31 62 -89 137 -99 128 -2 -3 8 -31 22 -62 21 -46 25 -69 22 -111
-9 -104 -78 -167 -242 -221 -44 -14 -109 -39 -144 -55 -36 -16 -66 -29 -67
-29 -6 0 13 68 28 100 10 19 78 113 153 209 148 191 186 255 205 349 23 120
-5 267 -64 330 -44 48 -132 79 -188 67 -48 -11 -105 -69 -129 -131 -25 -67
-26 -118 -2 -163 27 -54 40 -50 29 8 -9 39 -7 57 6 92 39 101 77 133 136 113
19 -6 36 -29 61 -79 33 -66 35 -74 35 -175 0 -116 -13 -166 -72 -285 -38 -75
-211 -345 -222 -345 -10 1 -158 282 -171 326 -7 22 -10 66 -9 97 4 62 -1 69
-26 35 -49 -70 -40 -195 25 -339 81 -181 82 -170 -6 -98 -152 126 -246 211
-276 252 -124 168 -140 404 -52 761 30 123 37 165 21 139z"/>
<path d="M4287 2498 c-41 -55 -50 -81 -50 -138 0 -67 15 -115 61 -194 47 -80
104 -140 158 -166 56 -28 83 -20 28 8 -50 25 -106 92 -142 169 -26 56 -27 64
-25 206 1 81 0 147 -2 147 -2 0 -15 -15 -28 -32z"/>
<path d="M4691 2495 c-1 -15 37 -61 44 -54 3 4 -5 20 -19 35 -14 16 -25 25
-25 19z"/>
<path d="M3610 2420 c-11 -7 -7 -10 18 -10 17 0 32 5 32 10 0 13 -30 13 -50 0z"/>
<path d="M11927 2297 c-27 -23 -46 -45 -42 -49 9 -9 57 20 78 49 33 43 13 43
-36 0z"/>
<path d="M5157 2273 c-2 -10 -8 -26 -12 -35 -4 -10 -3 -18 3 -18 8 0 32 50 32
66 0 12 -19 1 -23 -13z"/>
<path d="M3180 2225 c0 -8 4 -15 10 -15 5 0 7 7 4 15 -4 8 -8 15 -10 15 -2 0
-4 -7 -4 -15z"/>
<path d="M5718 2199 c-10 -5 -22 -19 -28 -29 -20 -38 37 -110 86 -110 23 0 49
32 60 73 13 52 -67 96 -118 66z"/>
<path d="M11812 2187 c-24 -25 -29 -47 -11 -47 14 0 48 41 49 58 0 19 -14 15
-38 -11z"/>
<path d="M5095 2180 c-3 -5 -2 -10 4 -10 5 0 13 5 16 10 3 6 2 10 -4 10 -5 0
-13 -4 -16 -10z"/>
<path d="M3200 2152 c0 -10 33 -42 44 -42 3 0 -1 11 -10 25 -16 25 -34 33 -34
17z"/>
<path d="M11743 2120 c-18 -11 -33 -27 -33 -35 0 -9 -7 -18 -15 -21 -16 -7
-21 -44 -6 -44 5 0 12 9 16 19 3 10 14 21 24 24 21 5 55 51 49 67 -2 6 -17 1
-35 -10z"/>
<path d="M6559 2116 c-47 -23 -31 -76 23 -76 32 0 43 18 34 54 -7 30 -26 38
-57 22z"/>
<path d="M8719 2087 c-67 -44 -88 -135 -46 -197 36 -54 72 -75 127 -75 111 0
183 118 131 215 -41 78 -141 105 -212 57z"/>
<path d="M7321 1763 c-23 -28 -21 -54 7 -85 33 -38 112 -6 112 45 0 66 -79 92
-119 40z"/>
<path d="M5983 1770 c-43 -17 -44 -91 -2 -122 21 -16 29 -17 52 -7 39 18 52
58 33 103 -16 38 -37 45 -83 26z"/>
<path d="M6010 726 c0 -9 18 -16 46 -21 26 -3 53 -9 60 -12 8 -3 14 1 14 11 0
16 -13 20 -82 30 -27 3 -38 1 -38 -8z"/>
<path d="M6266 691 c-7 -11 18 -21 55 -21 31 0 39 14 13 24 -23 9 -62 7 -68
-3z"/>
</g>
</svg>
