<?xml version="1.0" standalone="no"?>
<!DOCTYPE svg PUBLIC "-//W3C//DTD SVG 20010904//EN"
 "http://www.w3.org/TR/2001/REC-SVG-20010904/DTD/svg10.dtd">
<svg version="1.0" xmlns="http://www.w3.org/2000/svg"
 width="2048.000000pt" height="2048.000000pt" viewBox="0 0 2048.000000 2048.000000"
 preserveAspectRatio="xMidYMid meet">
<metadata>
Created by potrace 1.14, written by Peter Selinger 2001-2017
</metadata>
<g transform="translate(0.000000,2048.000000) scale(0.100000,-0.100000)"
fill="#000000" stroke="none">
<path d="M9718 17814 c-20 -11 -14 -13 44 -11 38 1 68 5 68 10 0 4 -6 7 -12 8
-57 5 -81 3 -100 -7z"/>
<path d="M10719 17799 c-6 -4 -4 -9 7 -13 10 -4 24 -1 32 8 14 13 13 15 -7 13
-12 -1 -27 -4 -32 -8z"/>
<path d="M10830 17790 c0 -6 7 -10 15 -10 8 0 17 0 20 0 16 0 6 14 -12 16 -13
2 -23 -1 -23 -6z"/>
<path d="M10970 17781 c0 -6 8 -11 18 -12 9 0 24 -2 32 -4 22 -4 92 -16 115
-19 27 -4 66 -13 185 -41 36 -9 71 -17 78 -17 6 -1 12 -4 12 -7 0 -3 10 -6 23
-7 27 -1 60 -7 244 -49 61 -14 124 -30 140 -36 15 -6 30 -10 33 -10 3 0 23 -4
45 -10 22 -6 48 -13 57 -14 10 -2 23 -7 28 -10 9 -5 19 -8 65 -18 6 -2 16 -6
22 -10 7 -5 22 -10 33 -13 11 -2 29 -6 41 -9 12 -2 27 -9 34 -15 14 -12 53
-19 132 -24 28 -2 57 -8 65 -12 7 -5 16 -9 21 -10 4 -1 8 -2 10 -4 1 -1 9 -3
17 -5 59 -14 240 -90 240 -101 0 -3 -3 -3 -7 -1 -18 11 -125 18 -119 8 11 -17
66 -40 127 -53 65 -13 76 -9 60 20 -10 19 -8 20 16 16 15 -3 33 -10 40 -16 7
-6 13 -7 13 -3 0 4 11 0 24 -8 13 -9 32 -14 42 -12 10 2 23 4 29 4 19 2 -32
30 -85 47 -30 9 -73 27 -95 40 -22 12 -67 32 -100 44 -33 12 -69 25 -80 30
-23 10 -150 51 -168 54 -7 1 -37 10 -67 18 -122 37 -447 116 -550 134 -14 3
-33 7 -42 10 -10 3 -28 7 -40 10 -29 5 -62 12 -90 20 -13 3 -31 6 -40 6 -10
-1 -18 2 -18 6 0 4 -8 8 -17 8 -21 1 -61 8 -123 23 -67 15 -113 24 -132 25
-10 0 -18 3 -18 6 0 3 -8 6 -17 6 -10 0 -43 4 -73 7 -152 19 -160 19 -160 8z"/>
<path d="M10296 17750 c-87 -3 -141 -9 -143 -16 -2 -6 4 -12 14 -13 24 -3 252
-4 328 -1 33 1 78 -1 100 -4 77 -11 100 -15 123 -20 12 -3 56 -8 97 -11 80 -6
96 4 46 29 -30 16 -87 22 -281 31 -69 4 -129 7 -135 8 -5 1 -73 0 -149 -3z"/>
<path d="M9860 17718 c0 -4 9 -8 20 -8 11 0 20 4 20 8 0 4 -9 8 -20 8 -11 0
-20 -4 -20 -8z"/>
<path d="M10050 17720 c0 -5 4 -10 9 -10 6 0 13 5 16 10 3 6 -1 10 -9 10 -9 0
-16 -4 -16 -10z"/>
<path d="M10950 17706 c0 -17 26 -39 48 -42 10 -1 51 -5 92 -9 41 -4 78 -9 83
-12 12 -7 20 28 8 40 -17 17 -58 22 -121 14 -19 -3 -43 0 -53 5 -31 16 -57 18
-57 4z"/>
<path d="M11250 17642 c0 -12 87 -32 107 -25 14 5 18 23 6 23 -5 1 -32 3 -60
6 -32 4 -53 2 -53 -4z"/>
<path d="M8385 17619 c-9 -14 -2 -20 14 -10 8 6 9 11 3 15 -6 3 -14 1 -17 -5z"/>
<path d="M11396 17623 c-7 -7 54 -32 66 -26 4 2 5 10 1 18 -5 15 -54 21 -67 8z"/>
<path d="M11590 17580 c0 -5 7 -10 15 -10 8 0 15 5 15 10 0 6 -7 10 -15 10 -8
0 -15 -4 -15 -10z"/>
<path d="M10660 17569 c0 -13 14 -17 95 -23 39 -3 100 -8 138 -12 41 -4 67 -2
67 4 0 12 -67 22 -185 28 -49 3 -96 7 -102 9 -7 2 -13 0 -13 -6z"/>
<path d="M11674 17562 c13 -22 163 -49 241 -43 15 1 12 5 -14 16 -45 20 -72
25 -160 32 -53 4 -72 3 -67 -5z"/>
<path d="M10678 17498 c9 -9 15 -9 24 0 9 9 7 12 -12 12 -19 0 -21 -3 -12 -12z"/>
<path d="M11980 17497 c8 -8 38 -22 65 -31 28 -10 59 -21 70 -26 32 -13 156
-48 210 -60 28 -6 59 -13 70 -17 18 -5 18 -3 -4 21 -14 14 -26 24 -28 22 -6
-5 -169 38 -258 69 -38 13 -86 27 -105 30 -30 5 -33 4 -20 -8z"/>
<path d="M12600 17499 c0 -10 40 -32 47 -25 3 2 2 9 -1 14 -8 13 -46 22 -46
11z"/>
<path d="M11778 17478 c9 -9 15 -9 24 0 9 9 7 12 -12 12 -19 0 -21 -3 -12 -12z"/>
<path d="M11670 17430 c0 -8 20 -17 57 -24 10 -2 47 -12 83 -21 36 -9 72 -19
80 -20 8 -2 15 -4 15 -5 0 -2 5 -3 55 -13 14 -3 41 -11 60 -17 51 -16 123 -29
113 -20 -9 7 -169 61 -243 81 -25 7 -49 14 -55 15 -26 7 -69 16 -147 30 -10 1
-18 -1 -18 -6z"/>
<path d="M7805 17391 c-3 -5 -1 -12 4 -15 5 -4 12 -2 16 4 4 6 10 8 15 5 5 -3
11 -1 15 5 4 6 -4 10 -19 10 -14 0 -27 -4 -31 -9z"/>
<path d="M12470 17365 c0 -16 27 -32 37 -21 7 7 -16 36 -28 36 -5 0 -9 -7 -9
-15z"/>
<path d="M7580 17315 c-137 -54 -131 -52 -228 -97 -46 -21 -87 -38 -90 -38
-11 0 -112 -64 -112 -71 0 -9 114 23 118 33 2 4 8 8 13 8 4 0 55 22 111 49 57
26 148 65 203 86 102 39 130 54 120 63 -12 13 -34 7 -135 -33z"/>
<path d="M12915 17269 c-9 -13 15 -34 48 -43 31 -7 35 4 10 26 -25 21 -51 29
-58 17z"/>
<path d="M8486 17243 c-4 -5 -11 -8 -14 -8 -17 -1 -128 -39 -139 -48 -7 -5
-13 -7 -13 -4 0 4 -20 -2 -45 -13 -25 -11 -45 -17 -45 -13 0 3 -6 1 -12 -4 -7
-6 -40 -20 -73 -31 -98 -34 -228 -82 -260 -97 -16 -7 -42 -17 -58 -20 -15 -4
-30 -11 -33 -16 -3 -5 -12 -9 -21 -9 -8 0 -29 -6 -46 -14 -18 -8 -50 -21 -72
-29 -22 -8 -67 -27 -100 -42 -33 -14 -76 -34 -95 -42 -176 -79 -245 -121 -227
-139 2 -2 82 35 177 83 184 90 183 90 270 124 60 23 350 125 363 128 16 3 29
6 47 14 17 6 160 50 175 53 59 12 176 59 220 88 30 21 55 39 55 42 0 7 -46 4
-54 -3z"/>
<path d="M12780 17237 c0 -9 110 -59 135 -62 20 -2 23 1 15 14 -13 25 -61 47
-107 50 -24 1 -43 0 -43 -2z"/>
<path d="M13047 17211 c-17 -6 -16 -8 5 -26 27 -23 53 -26 53 -6 0 20 -37 40
-58 32z"/>
<path d="M12950 17166 c0 -2 17 -15 38 -27 20 -13 39 -26 42 -30 7 -9 115 -58
176 -79 96 -34 88 8 -8 44 -26 10 -50 22 -53 27 -15 23 -195 83 -195 65z"/>
<path d="M13150 17146 c0 -9 5 -16 10 -16 6 0 10 4 10 9 0 6 -4 13 -10 16 -5
3 -10 -1 -10 -9z"/>
<path d="M7099 17092 c-12 -11 -18 -21 -13 -24 5 -3 20 5 34 18 29 28 13 32
-21 6z"/>
<path d="M12504 17075 c10 -8 23 -12 28 -9 14 9 -2 24 -25 24 -21 -1 -21 -1
-3 -15z"/>
<path d="M6982 17032 c-18 -10 -30 -21 -26 -24 7 -8 74 22 74 34 0 12 -11 9
-48 -10z"/>
<path d="M12615 17039 c-7 -10 84 -53 93 -44 8 8 -9 22 -50 38 -23 10 -40 12
-43 6z"/>
<path d="M13369 17001 l-24 -20 25 -23 c14 -13 55 -38 90 -57 36 -18 91 -51
123 -72 32 -22 62 -39 67 -39 5 0 10 -3 12 -8 2 -4 28 -23 58 -42 30 -19 60
-38 65 -43 6 -4 111 -74 235 -156 124 -82 242 -165 263 -185 21 -20 40 -36 43
-36 2 0 17 -11 32 -24 44 -39 74 -65 126 -110 27 -22 61 -52 75 -66 15 -14 42
-38 61 -54 153 -126 404 -376 519 -516 65 -79 98 -111 137 -134 16 -10 45 -38
64 -64 19 -25 40 -50 46 -56 10 -10 207 -291 229 -327 6 -9 60 -90 120 -181
129 -193 118 -176 195 -305 33 -56 60 -106 60 -112 0 -6 4 -11 9 -11 5 0 15
-15 22 -32 7 -18 28 -59 46 -90 17 -32 30 -58 28 -58 -9 0 61 -124 73 -128 29
-9 -2 93 -53 173 -19 29 -49 84 -68 121 -18 38 -38 78 -44 89 -6 11 -20 38
-31 60 -104 208 -168 316 -226 380 -53 59 -55 61 -185 250 -30 44 -60 85 -66
91 -5 6 -21 26 -35 44 -14 19 -40 49 -58 67 -18 18 -31 33 -28 33 2 0 -12 17
-32 38 -20 20 -53 57 -72 82 -19 25 -42 54 -51 65 -10 11 -43 52 -75 90 -32
39 -63 73 -70 77 -6 4 -27 22 -45 39 -58 53 -291 273 -313 294 -38 37 -261
230 -295 255 -19 14 -40 31 -47 38 -7 6 -17 12 -23 12 -6 0 -11 5 -11 10 0 6
-6 10 -14 10 -8 0 -16 3 -18 8 -5 13 -202 174 -225 185 -13 5 -23 14 -23 19 0
4 -5 8 -11 8 -12 0 -152 91 -157 103 -2 4 -8 7 -13 7 -5 0 -38 20 -73 45 -36
25 -67 45 -70 45 -3 0 -25 14 -49 30 -25 17 -50 30 -56 30 -6 0 -11 3 -11 8 0
4 -25 18 -55 31 -66 29 -67 37 -1 15 26 -9 49 -14 52 -12 2 3 -15 18 -38 33
-24 16 -54 36 -68 45 -39 27 -88 50 -103 50 -8 0 -25 -9 -38 -19z"/>
<path d="M6881 16976 c-6 -8 -25 -19 -41 -26 -16 -7 -27 -16 -24 -21 5 -9 113
41 114 54 0 13 -37 8 -49 -7z"/>
<path d="M10221 16973 c2 -4 25 -51 52 -103 26 -52 49 -104 51 -115 2 -11 10
-40 16 -65 24 -84 14 -201 -29 -375 -22 -88 -50 -191 -61 -230 -26 -86 -32
-136 -33 -290 -1 -112 1 -124 28 -180 43 -91 112 -195 164 -246 58 -57 77 -67
117 -64 37 3 186 75 247 118 128 91 265 305 312 486 40 157 -13 356 -143 536
-40 55 -111 125 -126 125 -8 0 17 -34 44 -60 3 -3 19 -23 36 -45 110 -142 140
-321 88 -518 -35 -129 -73 -199 -169 -305 -64 -72 -222 -166 -257 -153 -10 4
-45 40 -78 81 -67 84 -68 70 10 211 36 65 70 112 113 153 34 32 53 54 42 48
-11 -5 -33 -22 -48 -36 -15 -14 -31 -26 -36 -26 -4 0 -47 -40 -96 -89 -50 -49
-92 -88 -94 -85 -3 2 -6 63 -7 134 -3 119 -1 132 21 176 18 36 21 50 12 56
-12 8 -7 10 23 12 8 1 20 13 27 27 7 14 36 48 66 75 94 88 90 98 -9 21 -100
-77 -96 -76 -90 -28 12 88 16 118 21 179 5 63 13 88 37 114 7 8 22 24 33 37
20 24 19 24 -19 -2 -22 -14 -42 -24 -46 -22 -4 3 -13 33 -19 67 -27 143 -67
239 -139 336 -23 30 -69 65 -61 45z"/>
<path d="M7175 16882 c-54 -23 -153 -79 -165 -93 -7 -8 -119 -79 -126 -79 -2
0 -10 -5 -17 -11 -21 -18 -219 -139 -228 -139 -5 0 -9 -5 -9 -11 0 -7 -10 -9
-25 -5 -19 5 -28 1 -39 -17 -9 -12 -54 -50 -101 -82 -48 -33 -95 -67 -105 -76
-10 -8 -31 -24 -46 -35 -14 -10 -37 -28 -50 -39 -13 -11 -36 -30 -51 -42 -166
-128 -556 -508 -723 -703 -30 -36 -60 -69 -66 -75 -6 -5 -39 -44 -74 -85 -35
-41 -70 -83 -79 -92 -18 -19 -24 -26 -66 -83 -16 -22 -33 -41 -37 -43 -4 -2
-8 -8 -8 -13 0 -5 -9 -19 -20 -31 -35 -40 -45 -53 -59 -81 -8 -15 -18 -27 -23
-27 -4 0 -8 -6 -8 -13 0 -8 -9 -22 -20 -32 -11 -10 -20 -24 -20 -31 0 -7 -4
-14 -8 -16 -5 -1 -44 -55 -87 -118 -43 -63 -81 -117 -84 -120 -10 -8 -95 -138
-140 -215 -48 -82 -161 -245 -196 -283 -30 -32 -33 -15 -5 21 11 14 20 30 20
36 0 6 5 11 10 11 6 0 10 5 10 12 0 14 229 362 241 366 5 2 9 8 9 14 0 5 17
35 39 66 92 135 216 332 248 394 41 80 98 156 206 272 21 23 66 75 99 116 88
110 114 142 138 170 24 28 227 243 303 322 27 27 46 52 43 55 -9 10 -152 -68
-193 -106 -22 -20 -67 -58 -99 -86 -32 -27 -109 -99 -171 -160 -62 -60 -138
-135 -170 -165 -32 -30 -66 -66 -75 -80 -9 -14 -19 -22 -23 -18 -8 8 28 71 60
104 83 87 123 148 106 159 -12 7 -72 -66 -78 -95 -3 -15 -16 -31 -31 -38 -15
-7 -46 -39 -69 -70 -23 -31 -49 -66 -58 -77 -8 -11 -45 -60 -81 -110 -36 -49
-74 -101 -85 -115 -61 -80 -172 -238 -227 -325 -36 -55 -69 -101 -74 -103 -4
-2 -8 -10 -8 -18 0 -8 -4 -14 -8 -14 -10 0 -92 -125 -92 -139 0 -5 -4 -11 -9
-13 -8 -3 -73 -135 -142 -288 -19 -41 -37 -76 -41 -78 -5 -2 -8 -9 -8 -16 0
-7 -20 -50 -45 -96 -25 -46 -45 -86 -45 -90 0 -3 -9 -24 -19 -46 -10 -21 -28
-66 -39 -99 -26 -80 -89 -237 -124 -312 -6 -12 -16 -19 -23 -17 -21 8 -29 -16
-27 -79 1 -33 -4 -69 -11 -81 -6 -11 -11 -24 -12 -28 0 -3 -3 -10 -7 -14 -5
-4 -8 -14 -8 -23 0 -9 -15 -54 -33 -101 -18 -47 -34 -103 -36 -125 -1 -22 -11
-54 -20 -71 -10 -17 -30 -77 -45 -135 -44 -167 -67 -229 -86 -229 -6 0 -5 11
1 28 6 15 12 34 14 42 2 8 11 44 20 79 20 77 27 147 14 134 -5 -5 -19 -44 -31
-87 -12 -45 -24 -74 -29 -69 -6 6 -4 23 2 42 12 34 6 52 -11 35 -11 -11 -19
-39 -26 -94 -8 -61 -12 -78 -24 -99 -18 -34 -19 -25 -5 34 7 32 9 58 3 61 -4
3 -8 2 -6 -3 1 -4 -12 -53 -29 -108 -17 -55 -34 -113 -37 -130 -3 -16 -8 -40
-11 -51 -16 -71 -47 -224 -51 -249 -2 -16 -8 -43 -13 -60 -17 -51 1 208 19
275 12 44 21 120 15 120 -5 0 -22 -63 -29 -114 -4 -21 -8 -42 -11 -46 -2 -4
-7 -22 -9 -41 -3 -19 -10 -59 -16 -89 -15 -77 -21 -111 -25 -145 -2 -16 -6
-50 -10 -75 -3 -25 -7 -54 -10 -65 -2 -11 -7 -61 -10 -112 -6 -85 -6 -91 13
-97 19 -6 20 -13 14 -124 -8 -162 -7 -698 2 -807 4 -49 9 -117 11 -150 5 -64
11 -135 19 -200 15 -120 22 -195 32 -330 3 -44 10 -98 15 -120 5 -22 11 -49
13 -60 2 -11 13 -56 25 -100 43 -155 51 -185 56 -212 4 -24 70 -298 78 -328
12 -41 59 -193 64 -205 3 -8 7 -20 8 -26 11 -51 83 -249 162 -449 114 -287
180 -425 385 -805 69 -126 183 -317 208 -347 5 -7 10 -14 10 -17 0 -5 150
-229 159 -236 3 -3 24 -32 46 -64 22 -33 44 -64 50 -70 6 -6 21 -27 34 -46 13
-19 29 -40 35 -45 22 -20 76 -94 76 -104 0 -5 3 -11 8 -13 4 -1 27 -30 52 -63
25 -33 58 -73 73 -90 15 -16 79 -93 142 -171 63 -78 146 -170 186 -205 39 -35
86 -77 104 -94 17 -16 67 -61 110 -100 43 -38 117 -107 164 -151 47 -45 102
-94 121 -110 19 -16 37 -31 40 -34 14 -15 248 -196 330 -256 52 -38 97 -72 98
-76 2 -5 8 -8 14 -8 6 0 27 -13 47 -28 20 -16 44 -32 54 -35 9 -4 17 -11 17
-17 0 -5 5 -10 12 -10 6 0 26 -11 44 -25 18 -14 35 -25 38 -25 3 0 24 -13 48
-29 24 -16 89 -52 146 -81 56 -29 102 -58 102 -63 0 -6 3 -7 7 -4 3 4 22 -5
40 -19 36 -27 258 -140 293 -148 3 -1 16 -8 30 -16 14 -8 27 -15 30 -15 3 -1
18 -7 33 -13 16 -7 33 -12 38 -12 5 0 9 -4 9 -10 0 -5 4 -10 9 -10 5 0 42 -15
83 -34 140 -65 147 -67 453 -186 88 -33 169 -65 180 -70 63 -28 371 -120 483
-145 9 -2 49 -11 87 -20 39 -9 84 -18 100 -21 17 -2 37 -7 45 -10 8 -3 29 -8
47 -9 17 -2 49 -8 70 -14 21 -6 54 -13 73 -15 64 -9 115 -17 130 -22 8 -2 38
-6 65 -9 28 -4 61 -8 75 -10 36 -6 97 -13 161 -20 31 -3 66 -7 76 -9 11 -3 53
-7 94 -10 41 -4 94 -9 119 -12 25 -3 135 -7 245 -9 110 -2 211 -6 225 -9 55
-13 507 -7 600 8 14 3 66 7 115 11 50 3 97 8 105 11 9 2 40 6 70 9 30 2 69 7
85 10 17 4 46 8 65 10 19 2 35 5 35 5 0 1 11 3 25 5 14 1 43 5 65 9 69 11 98
15 150 21 58 7 122 23 150 37 10 6 42 12 70 13 27 1 70 8 95 15 25 7 50 15 55
16 19 5 160 43 220 59 97 27 162 44 180 49 100 24 421 139 555 200 25 11 47
21 50 21 15 4 71 29 107 48 28 14 39 25 33 32 -11 13 -2 55 12 55 5 0 7 -3 5
-7 -3 -5 -1 -18 4 -30 8 -22 9 -22 55 -6 25 9 81 33 123 54 42 22 80 39 85 39
5 0 17 7 27 16 9 8 23 16 31 18 7 1 20 6 28 11 31 20 156 86 183 96 15 6 27
15 27 20 0 5 5 9 11 9 7 0 40 18 75 40 35 22 68 40 73 40 5 0 11 3 13 8 2 4
27 22 56 41 29 18 60 46 69 61 9 15 30 35 47 44 17 9 69 41 116 70 47 30 91
55 98 55 6 1 12 5 12 9 0 4 12 15 28 24 32 20 206 167 210 179 4 11 -25 12
-30 2 -3 -9 -29 -27 -222 -157 -70 -48 -131 -84 -135 -81 -7 8 59 64 76 65 6
0 13 4 15 8 2 4 57 45 123 92 66 46 121 87 123 92 2 4 8 8 13 8 5 0 48 32 97
71 48 39 105 85 127 102 22 17 85 75 140 128 55 52 136 129 180 170 134 124
382 375 401 405 10 16 79 110 154 209 167 222 240 322 263 358 10 16 22 34 27
40 20 23 116 162 135 195 11 17 23 32 27 32 4 0 7 3 6 8 -2 4 5 18 15 32 23
33 60 92 134 215 171 285 240 408 275 490 21 50 43 99 48 110 5 11 26 61 46
110 20 50 42 104 49 120 14 34 28 68 29 75 1 3 18 48 38 100 60 158 126 343
133 373 5 23 2 30 -14 34 -19 5 -26 43 -8 43 4 0 6 4 3 8 -3 5 3 45 14 90 11
44 21 91 24 104 2 13 21 91 41 173 21 83 39 159 41 170 2 11 8 43 14 70 6 28
13 68 15 90 3 22 8 58 11 80 4 22 8 51 9 65 3 29 13 110 20 160 2 19 7 61 10
92 3 31 8 65 10 76 7 36 19 186 19 244 1 32 4 58 7 58 9 0 10 673 1 705 l-9
30 -13 -25 c-9 -17 -15 -70 -17 -160 -1 -74 -4 -245 -7 -380 -3 -135 -7 -263
-10 -285 -4 -22 -9 -65 -12 -95 -3 -30 -7 -66 -9 -80 -3 -14 -7 -50 -11 -80
-3 -30 -12 -88 -20 -129 -7 -41 -12 -77 -9 -79 3 -3 1 -10 -4 -16 -5 -6 -11
-31 -15 -56 -9 -74 -22 -126 -150 -621 -81 -314 -185 -588 -406 -1074 -17 -38
-37 -74 -43 -80 -7 -5 -27 -28 -46 -50 -19 -21 -32 -35 -30 -30 3 6 24 51 48
100 23 50 52 110 62 135 11 25 24 54 29 65 37 84 50 115 50 124 0 6 5 11 12
11 6 0 9 3 5 6 -3 3 13 49 35 102 22 54 45 108 51 122 5 14 12 30 13 35 96
285 250 769 259 812 33 157 84 409 90 448 11 75 15 96 20 135 3 19 7 51 10 70
6 39 12 85 19 145 3 22 8 85 11 140 3 55 8 134 10 175 3 41 7 113 10 160 2 47
7 114 11 150 3 36 5 76 3 90 -5 48 0 315 7 344 5 19 2 31 -7 37 -11 6 -14 38
-12 146 1 96 -3 155 -13 193 -9 30 -17 82 -20 115 -3 33 -7 69 -9 80 -3 11 -9
38 -13 61 -5 22 -12 46 -16 53 -5 7 -9 51 -10 99 -2 90 -26 213 -53 269 -12
25 -13 36 -4 47 9 10 6 25 -15 66 -20 41 -28 72 -31 133 -3 71 -7 84 -35 119
-17 22 -32 49 -34 61 -1 12 -5 38 -9 57 -3 19 -8 46 -10 60 -12 91 -21 124
-57 214 -22 56 -47 117 -56 136 -9 19 -17 37 -18 40 0 6 -20 52 -86 203 -30
67 -58 117 -66 117 -9 0 -11 -7 -7 -22 10 -35 27 -68 36 -68 5 0 6 -13 3 -28
-6 -27 1 -50 81 -267 34 -95 102 -293 110 -325 20 -72 66 -184 88 -210 28 -33
31 -42 18 -75 -7 -16 19 -141 43 -205 4 -13 9 -40 21 -115 2 -11 6 -33 9 -50
10 -51 14 -76 36 -204 21 -121 26 -160 35 -251 3 -25 7 -58 9 -75 24 -159 41
-491 26 -500 -4 -2 -7 1 -7 8 0 11 -3 42 -18 207 -3 30 -8 73 -11 95 -4 22 -8
51 -9 65 -4 36 -15 111 -20 140 -3 14 -7 35 -10 48 -2 13 -6 31 -9 40 -3 9 -7
53 -10 97 -4 44 -10 94 -14 110 -4 17 -8 37 -7 45 1 8 -3 21 -8 28 -5 6 -7 12
-3 12 3 0 1 12 -5 26 -5 15 -12 43 -15 63 -6 40 -22 101 -53 206 -12 39 -23
77 -25 85 -2 8 -9 33 -15 55 -6 22 -10 43 -11 48 0 4 -7 21 -15 37 -9 17 -13
30 -11 30 3 0 -4 25 -14 55 -10 30 -16 55 -13 55 3 0 1 6 -5 13 -6 6 -11 15
-11 19 -1 4 -3 13 -6 20 -2 7 -12 49 -21 93 -10 44 -19 83 -20 88 -1 4 -3 9
-4 12 -3 6 -3 6 -14 55 -5 19 -12 40 -16 45 -4 6 -22 53 -40 105 -39 117 -36
108 -114 288 -25 56 -42 102 -38 102 4 0 2 4 -4 8 -6 4 -43 68 -81 142 -39 74
-79 151 -90 171 -41 72 -57 104 -55 112 1 4 -2 7 -7 7 -5 0 -18 21 -30 48 -12
26 -32 65 -46 87 -14 22 -28 47 -32 55 -11 25 -73 120 -78 120 -12 0 36 -105
78 -172 19 -29 44 -75 58 -103 13 -27 32 -62 42 -77 10 -16 15 -28 10 -28 -4
0 -3 -4 2 -8 18 -13 67 -114 53 -110 -14 5 -91 138 -80 138 4 0 2 4 -3 8 -11
8 -93 141 -97 157 -1 6 -6 15 -10 20 -5 6 -41 59 -80 119 -67 103 -78 119
-122 169 -10 12 -30 38 -45 57 -14 19 -33 42 -41 51 -15 17 -64 87 -101 144
-39 61 -44 69 -54 80 -5 6 -21 28 -35 48 -14 20 -28 37 -32 37 -8 0 -14 5 -97
85 -79 76 -63 32 32 -86 197 -247 367 -501 494 -737 20 -37 43 -78 52 -92 9
-14 30 -50 46 -80 16 -30 42 -77 57 -105 42 -76 147 -288 150 -305 2 -8 6 -17
9 -20 7 -5 91 -215 159 -395 23 -60 45 -119 50 -130 13 -27 52 -128 55 -140 1
-5 5 -17 8 -25 6 -17 115 -451 122 -488 2 -13 6 -31 9 -40 3 -9 7 -28 10 -42
2 -14 9 -45 15 -70 10 -48 14 -66 30 -158 17 -100 29 -185 36 -272 1 -19 6
-66 10 -105 4 -38 9 -81 11 -95 4 -40 15 -132 19 -165 7 -54 18 -376 18 -555
0 -286 -20 -612 -47 -779 -3 -14 -8 -46 -11 -71 -10 -71 -15 -102 -25 -155 -6
-27 -12 -63 -15 -80 -2 -16 -7 -41 -10 -55 -3 -14 -7 -37 -10 -52 -2 -15 -6
-35 -9 -45 -3 -10 -7 -29 -10 -43 -9 -52 -46 -209 -71 -305 -15 -55 -28 -104
-29 -110 -3 -12 -35 -125 -41 -143 -3 -7 -5 -16 -7 -20 -3 -11 -103 -298 -128
-367 -12 -33 -28 -75 -36 -92 -8 -18 -20 -48 -28 -65 -134 -318 -269 -581
-439 -858 -131 -214 -431 -644 -496 -712 -9 -9 -27 -31 -41 -48 -57 -71 -122
-140 -242 -260 -115 -115 -140 -134 -200 -154 -10 -3 -18 -15 -18 -28 0 -13
-19 -44 -42 -70 -24 -26 -53 -61 -65 -76 -12 -16 -106 -94 -210 -175 -103 -81
-195 -153 -203 -160 -55 -50 -214 -161 -226 -159 -8 2 -14 -4 -14 -13 0 -8
-11 -21 -25 -27 -14 -6 -25 -15 -25 -20 0 -4 -6 -8 -14 -8 -8 0 -16 -3 -18 -8
-3 -7 -192 -122 -201 -122 -5 0 -253 -150 -297 -179 -31 -22 -333 -168 -495
-241 -22 -10 -83 -39 -137 -64 -161 -76 -486 -200 -578 -221 -8 -2 -42 -11
-75 -20 -33 -9 -68 -18 -77 -21 -39 -9 -56 -14 -143 -39 -190 -56 -316 -85
-430 -101 -16 -2 -41 -6 -55 -9 -14 -3 -41 -7 -60 -9 -20 -2 -45 -6 -55 -9
-36 -11 -104 -20 -215 -31 -36 -3 -75 -8 -88 -11 -13 -2 -51 -7 -85 -10 -34
-3 -75 -8 -92 -11 -72 -13 -555 -20 -760 -10 -407 19 -471 23 -574 41 -101 16
-210 36 -231 40 -14 4 -36 8 -50 11 -14 3 -77 16 -140 30 -63 15 -121 27 -130
29 -8 2 -44 11 -80 20 -36 8 -73 18 -83 20 -76 17 -186 48 -297 82 -8 2 -16 4
-17 4 -2 -1 -29 9 -60 20 -57 20 -71 25 -85 28 -4 1 -24 9 -45 17 -20 9 -44
17 -52 19 -16 4 -119 45 -176 70 -61 28 -162 68 -212 86 -29 10 -99 44 -155
77 -168 96 -190 108 -253 131 -33 12 -88 40 -123 62 -35 21 -66 39 -69 39 -2
0 -41 25 -85 55 -44 30 -84 55 -89 55 -5 0 -9 4 -9 9 0 6 -11 16 -24 23 -14 7
-53 33 -88 57 -35 25 -85 60 -113 79 -147 103 -297 220 -400 312 -28 25 -71
61 -95 80 -24 19 -60 49 -79 65 -20 17 -49 41 -65 55 -34 28 -89 82 -127 126
-15 16 -55 56 -90 90 -35 33 -99 98 -141 145 -176 191 -232 249 -240 249 -6 0
-8 -4 -6 -9 3 -10 65 -85 120 -145 29 -32 33 -42 21 -45 -18 -3 -122 104 -123
127 0 6 -6 12 -14 12 -8 0 -17 9 -21 19 -3 11 -12 22 -20 25 -8 3 -15 12 -15
21 0 8 -4 15 -9 15 -5 0 -37 37 -72 83 -68 88 -88 113 -104 131 -6 6 -22 27
-35 46 -13 19 -27 37 -30 40 -17 15 -70 90 -70 99 0 6 -4 11 -9 11 -24 0 -301
456 -301 495 0 27 14 10 48 -57 18 -36 45 -77 61 -92 16 -16 27 -34 25 -40 -3
-7 4 -20 15 -30 18 -17 19 -17 25 2 9 27 -4 56 -91 206 -42 72 -86 149 -98
171 -13 22 -37 65 -54 95 -17 30 -39 72 -49 93 -9 20 -20 37 -24 37 -5 0 -8 4
-8 9 0 5 -29 69 -64 142 -97 206 -122 265 -192 467 -101 291 -116 335 -124
367 -5 17 -15 55 -24 87 -8 31 -18 67 -20 80 -3 12 -12 47 -20 76 -8 29 -15
55 -15 57 -1 3 -2 7 -2 10 -1 3 -2 8 -3 13 -1 4 -8 34 -16 67 -8 33 -14 62
-15 65 -1 5 -27 118 -30 130 0 3 -4 27 -9 53 -4 27 -9 56 -10 65 -2 10 -6 33
-10 52 -9 52 -22 182 -31 305 -2 22 -6 56 -9 75 -21 143 -34 649 -21 844 8
133 16 231 21 266 2 19 6 98 8 175 3 77 9 165 15 195 6 30 13 69 16 85 5 27
25 126 31 150 1 6 5 21 8 35 3 14 12 50 20 80 8 30 17 68 20 84 11 64 29 144
43 196 8 30 16 60 17 65 16 61 31 111 49 165 23 71 22 69 31 120 13 74 18 96
29 130 6 19 16 42 22 50 7 8 10 28 9 45 -2 16 6 50 17 75 12 25 31 77 44 115
13 39 35 99 49 134 15 36 28 89 31 119 5 61 24 122 39 122 5 0 7 3 4 6 -5 5
97 216 135 279 7 11 58 101 115 200 57 99 107 187 112 195 80 133 122 200 126
200 9 0 4 -19 -9 -32 -16 -16 -60 -118 -54 -124 2 -3 32 37 66 88 34 51 65 98
70 104 5 6 17 26 26 45 10 19 21 36 24 39 4 3 13 20 20 38 8 17 17 32 22 32 5
0 9 5 9 11 0 11 53 91 78 117 36 39 130 170 137 192 11 35 15 70 7 70 -10 0
-112 -71 -150 -105 -44 -38 -149 -147 -199 -204 -21 -24 -75 -83 -121 -130
-80 -83 -83 -84 -61 -41 12 25 25 47 28 50 4 3 39 48 79 100 39 53 99 125 133
160 33 36 80 87 102 114 23 27 49 56 58 65 9 9 45 50 80 91 69 81 471 490 482
490 4 0 19 13 34 28 43 43 216 177 225 175 4 -2 8 1 8 5 0 5 37 35 83 67 45
32 87 64 92 70 6 6 25 20 43 30 17 11 32 22 32 26 0 3 16 9 35 12 19 3 75 34
127 70 99 68 218 140 218 131 0 -3 13 4 29 15 16 11 52 26 80 32 52 11 78 28
145 95 l35 35 -24 11 c-17 7 -28 8 -37 1 -7 -6 -31 -16 -53 -23 -22 -7 -78
-34 -125 -60 -138 -76 -133 -74 -120 -53 7 10 79 63 161 118 114 77 151 107
159 130 8 24 28 39 95 75 47 24 85 50 85 57 0 7 -1 13 -2 12 -2 0 -21 -8 -43
-17z m-235 -312 c0 -5 -6 -10 -14 -10 -8 0 -16 -5 -18 -11 -2 -7 -11 -10 -18
-7 -11 3 -6 10 15 21 36 20 35 19 35 7z m-1934 -1916 c-10 -14 -20 -23 -23
-21 -2 3 3 17 13 31 9 15 19 24 22 22 2 -3 -3 -17 -12 -32z m-1300 -2041 c-1
-10 -8 -38 -16 -63 -7 -25 -14 -49 -15 -55 0 -5 -8 -9 -17 -7 -9 1 -19 -6 -23
-18 -9 -27 -24 -25 -18 3 3 12 19 34 35 49 16 15 28 28 27 30 -1 2 1 20 5 41
7 37 25 53 22 20z m-70 -41 c-17 -16 -18 -16 -5 5 7 12 15 20 18 17 3 -2 -3
-12 -13 -22z m30 -139 c-3 -16 -8 -46 -11 -68 -8 -51 -34 -157 -41 -164 -10
-10 17 186 32 242 9 28 26 19 20 -10z m-63 -118 c-7 -21 -13 -19 -13 6 0 11 4
18 10 14 5 -3 7 -12 3 -20z m10 -363 c0 -23 -7 -122 -17 -217 -10 -98 -17
-194 -21 -299 -3 -66 -7 -122 -10 -125 -10 -9 -25 22 -16 34 7 9 7 16 3 53 -3
19 -22 14 -22 -6 0 -10 -3 -21 -6 -24 -3 -3 -6 -80 -7 -171 -1 -109 -5 -162
-12 -157 -11 9 -11 422 -1 537 8 93 28 193 38 193 5 0 6 -4 3 -10 -3 -5 0 -10
8 -10 24 0 28 30 8 57 -21 26 -19 48 5 57 16 6 19 62 4 71 -14 8 -13 48 1 62
17 17 41 -11 42 -45z m-103 12 c0 -8 -5 -12 -10 -9 -6 4 -8 11 -5 16 9 14 15
11 15 -7z m13267 -766 c-3 -8 -6 -5 -6 6 -1 11 2 17 5 13 3 -3 4 -12 1 -19z
m-13255 -372 c1 -69 2 -126 0 -126 -11 0 -21 64 -23 156 -2 131 -1 146 11 118
4 -12 10 -78 12 -148z m-32 -179 c0 -18 -2 -19 -10 -7 -13 20 -13 43 0 35 6
-3 10 -16 10 -28z m40 -37 c0 -5 -2 -10 -4 -10 -3 0 -8 5 -11 10 -3 6 -1 10 4
10 6 0 11 -4 11 -10z m11 -47 c13 -34 22 -215 9 -193 -4 8 -11 47 -14 85 -4
39 -9 85 -12 103 -7 39 3 42 17 5z m59 -18 c0 -5 -5 -3 -10 5 -5 8 -10 20 -10
25 0 6 5 3 10 -5 5 -8 10 -19 10 -25z m-105 -2 c12 -45 14 -73 5 -78 -4 -3
-11 12 -14 33 -4 20 -9 45 -12 55 -3 9 -1 17 4 17 6 0 13 -12 17 -27z m119
-156 c3 -15 1 -25 -3 -22 -5 2 -11 18 -13 35 -6 38 9 26 16 -13z m16 -105 c18
-95 22 -158 10 -146 -13 13 -16 27 -25 129 -8 88 -1 97 15 17z m-17 -237 c18
-70 30 -167 18 -145 -8 14 -34 126 -45 194 -9 49 10 15 27 -49z m109 -715 c5
-36 -8 -41 -14 -5 -4 21 -1 35 8 35 1 0 4 -13 6 -30z m12319 -1202 c-22 -63
-101 -222 -113 -226 -4 -2 -8 -9 -8 -16 0 -11 -90 -153 -174 -278 -6 -9 -42
-63 -81 -120 -38 -57 -75 -107 -81 -113 -6 -5 -34 -42 -62 -82 -29 -39 -59
-74 -67 -77 -23 -9 -22 -7 61 99 8 11 23 32 32 48 9 15 20 27 24 27 4 0 8 7 8
15 0 8 4 15 9 15 5 0 12 8 15 18 3 9 16 28 28 42 13 14 45 59 72 100 27 41 57
87 67 102 11 15 19 30 19 33 0 3 18 33 40 66 22 33 40 62 40 64 0 2 25 46 55
97 31 51 72 125 92 165 20 40 37 73 39 73 2 0 -5 -24 -15 -52z m-668 -1015
c-12 -35 -62 -99 -128 -168 l-67 -70 57 75 c80 105 139 180 142 180 1 0 0 -8
-4 -17z m-1893 -1597 c0 -11 -19 -15 -25 -6 -3 5 1 10 9 10 9 0 16 -2 16 -4z
m359 -77 c-8 -5 -21 -9 -29 -9 -12 1 -11 4 4 15 10 8 23 12 29 8 5 -3 3 -9 -4
-14z m-214 -119 c-3 -5 -11 -10 -16 -10 -6 0 -7 5 -4 10 3 6 11 10 16 10 6 0
7 -4 4 -10z m-172 -108 c-49 -24 -76 -44 -83 -62 -9 -22 -16 -25 -43 -22 -19
2 -49 -5 -72 -17 l-40 -20 32 27 c39 34 141 89 208 113 78 28 77 21 -2 -19z
m-193 -136 c0 -2 -9 -6 -20 -9 -11 -3 -20 -1 -20 4 0 5 9 9 20 9 11 0 20 -2
20 -4z m-110 -10 c0 -20 -22 -56 -35 -56 -20 0 -19 30 3 46 17 13 32 18 32 10z
m-100 -50 c0 -3 -4 -8 -10 -11 -5 -3 -10 -1 -10 4 0 6 5 11 10 11 6 0 10 -2
10 -4z m-1198 -177 c-4 -4 -21 -10 -39 -12 -17 -3 -35 -7 -40 -10 -4 -3 -35
-8 -68 -11 -67 -7 -57 9 11 20 22 3 44 9 51 13 16 9 94 8 85 0z m-1168 -428
c2 -3 -14 -6 -35 -6 -32 0 -36 2 -24 11 15 11 51 8 59 -5z"/>
<path d="M3537 11576 c-7 -17 2 -56 12 -56 9 0 7 57 -1 65 -3 3 -8 -1 -11 -9z"/>
<path d="M6675 16854 c-52 -25 -82 -50 -74 -59 8 -7 81 34 109 61 30 29 28 29
-35 -2z"/>
<path d="M6457 16721 c-115 -76 -180 -129 -171 -142 5 -9 56 23 197 124 92 66
115 87 95 87 -8 0 -62 -31 -121 -69z"/>
<path d="M14086 16721 c-3 -5 1 -14 8 -20 18 -15 28 0 10 16 -7 7 -15 9 -18 4z"/>
<path d="M7110 16665 c0 -9 6 -12 15 -9 8 4 12 10 9 15 -8 14 -24 10 -24 -6z"/>
<path d="M8275 16604 c-28 -21 -27 -90 2 -114 38 -30 98 -4 103 45 4 34 1 44
-20 65 -24 24 -57 25 -85 4z"/>
<path d="M8532 16575 c-88 -74 -43 -224 68 -227 84 -3 145 93 111 175 -31 77
-119 102 -179 52z"/>
<path d="M9766 16542 c-82 -82 -129 -158 -167 -270 -30 -90 -33 -107 -33 -227
0 -151 19 -235 84 -369 76 -154 145 -222 315 -309 104 -53 275 -94 275 -66 0
18 -21 60 -39 78 -37 37 -101 190 -118 281 -12 67 -7 184 12 280 2 13 7 42 11
65 8 50 9 55 17 80 3 11 8 36 11 55 3 19 9 46 12 60 19 73 7 270 -16 270 -5 0
-5 -12 -1 -27 11 -40 6 -189 -8 -248 -7 -27 -14 -57 -16 -65 -2 -8 -20 -57
-39 -109 -65 -170 -84 -264 -81 -391 1 -52 0 -98 -2 -102 -6 -12 -75 20 -107
50 -39 38 -110 138 -134 192 -23 52 -48 135 -59 200 -9 54 -8 235 1 270 4 14
9 35 12 48 9 44 53 152 93 228 23 43 40 79 38 80 -2 2 -29 -23 -61 -54z m10
-979 c-7 -7 -26 7 -26 19 0 6 6 6 15 -2 9 -7 13 -15 11 -17z"/>
<path d="M6193 16528 c-47 -41 -50 -43 -92 -71 -35 -22 -51 -47 -32 -47 6 0
19 9 29 21 9 11 37 33 62 47 52 31 90 62 90 74 0 16 -20 7 -57 -24z"/>
<path d="M14320 16410 c20 -13 33 -13 25 0 -3 6 -14 10 -23 10 -15 0 -15 -2
-2 -10z"/>
<path d="M8050 16379 c-30 -10 -62 -19 -70 -19 -37 0 -180 -102 -241 -171
-141 -157 -188 -247 -228 -435 -23 -110 -19 -167 23 -309 6 -22 28 -73 54
-125 25 -51 151 -190 172 -190 5 0 15 -6 22 -12 44 -41 148 -85 212 -91 91 -8
222 35 331 109 20 13 40 24 44 24 5 0 19 8 32 18 31 23 115 22 153 -3 23 -15
26 -23 21 -52 -7 -43 -22 -73 -38 -73 -7 0 -4 -5 5 -11 24 -14 48 1 81 49 53
76 34 179 -43 230 -29 20 -44 23 -90 18 -78 -7 -97 -16 -172 -84 -51 -46 -76
-62 -110 -68 -108 -19 -163 -8 -293 56 -75 37 -86 46 -106 88 -54 116 -81 240
-74 347 9 138 35 206 111 294 95 109 135 141 249 199 133 68 260 76 335 21 15
-12 33 -18 39 -15 6 4 41 -6 78 -22 80 -33 146 -39 197 -18 43 18 47 28 7 20
-49 -10 -173 57 -266 143 -13 12 -34 24 -47 27 -13 2 -52 16 -87 31 -36 15
-90 29 -120 31 -31 2 -72 6 -91 8 -19 2 -60 -5 -90 -15z"/>
<path d="M12157 16335 c-143 -48 -278 -173 -337 -310 -26 -60 -40 -217 -26
-285 14 -62 106 -203 123 -186 3 3 -9 33 -26 66 -28 53 -32 72 -34 148 -3 98
15 205 46 271 58 124 211 211 375 213 127 2 193 -21 280 -99 66 -60 92 -99 92
-140 0 -38 -12 -42 -29 -10 -27 50 -234 171 -255 150 -3 -4 -6 -2 -6 3 0 11
-93 10 -135 -1 -101 -27 -213 -131 -244 -227 -11 -34 -17 -163 -8 -198 14 -61
63 -125 236 -302 111 -114 161 -178 192 -245 49 -108 57 -254 19 -357 -16 -42
-35 -67 -77 -104 -67 -59 -53 -77 26 -34 74 40 107 69 146 127 63 95 74 206
30 300 -27 55 -94 128 -354 380 -111 107 -140 154 -141 223 0 51 31 144 64
190 50 71 158 127 234 123 40 -2 142 -39 142 -51 0 -5 -26 -7 -58 -5 -163 10
-278 -150 -221 -307 27 -76 85 -141 141 -161 52 -18 212 -27 278 -15 84 15
204 72 259 121 92 85 146 262 116 378 -32 119 -130 231 -265 302 -80 42 -107
44 -36 2 88 -51 173 -171 195 -273 11 -53 7 -137 -9 -188 -44 -139 -122 -229
-260 -301 -49 -26 -69 -30 -112 -24 -7 1 10 14 38 29 71 37 96 59 127 112 42
73 58 129 63 224 10 228 -87 388 -276 452 -14 5 -29 9 -35 10 -5 0 -22 4 -36
8 -62 18 -175 13 -242 -9z m341 -484 c43 -23 69 -91 53 -134 -19 -47 -49 -70
-101 -75 -46 -4 -52 -2 -85 31 -27 27 -35 43 -35 71 0 94 88 150 168 107z"/>
<path d="M13990 16332 c0 -13 39 -32 45 -22 3 5 -3 14 -14 19 -23 13 -31 14
-31 3z"/>
<path d="M14440 16323 c0 -5 28 -30 61 -58 34 -27 67 -55 75 -62 9 -9 15 -10
19 -2 4 6 -2 17 -13 25 -12 8 -27 20 -34 27 -25 23 -97 77 -102 77 -3 0 -6 -3
-6 -7z"/>
<path d="M14646 16152 c-7 -12 35 -45 44 -35 5 4 -2 16 -15 26 -13 9 -26 13
-29 9z"/>
<path d="M5680 16031 c-7 -15 -7 -21 0 -21 12 0 25 28 17 36 -3 3 -10 -4 -17
-15z"/>
<path d="M14682 15860 c13 -20 28 -27 28 -12 0 10 -22 32 -32 32 -5 0 -3 -9 4
-20z"/>
<path d="M15150 15781 c12 -23 29 -35 37 -27 4 3 -4 15 -17 26 -29 25 -33 25
-20 1z"/>
<path d="M8599 15727 c-33 -22 -71 -98 -57 -113 4 -3 22 5 40 19 18 13 49 27
68 30 19 3 46 9 60 12 14 4 33 7 43 8 9 1 17 5 17 10 0 4 0 11 0 15 0 10 -66
34 -106 39 -20 2 -43 -5 -65 -20z"/>
<path d="M8718 15535 c-2 -1 -21 -5 -43 -8 -74 -11 -245 -80 -245 -100 0 -5 8
-6 18 -2 91 39 261 -41 278 -131 7 -39 10 -40 46 -16 39 26 67 66 70 98 3 41
-18 108 -41 128 -17 16 -76 38 -83 31z"/>
<path d="M13746 15440 c41 -120 106 -202 290 -371 36 -33 98 -99 168 -179 127
-146 231 -368 252 -540 7 -54 24 -110 33 -110 30 0 59 120 59 244 0 258 -178
545 -445 716 -56 36 -135 87 -177 113 -41 26 -102 75 -135 108 l-59 61 14 -42z"/>
<path d="M11874 15434 c-34 -34 -36 -40 -31 -83 13 -117 156 -141 208 -34 l21
43 -21 43 c-38 78 -116 91 -177 31z"/>
<path d="M14151 15444 c-40 -51 -20 -105 44 -118 43 -8 79 24 79 71 0 68 -82
99 -123 47z"/>
<path d="M15440 15456 c0 -7 7 -19 15 -26 16 -13 20 -3 9 24 -8 20 -24 21 -24
2z"/>
<path d="M7502 15318 c0 -7 -4 -34 -7 -61 -12 -82 0 -112 69 -180 84 -82 99
-108 102 -172 2 -51 0 -56 -32 -85 -19 -16 -45 -30 -56 -30 -21 0 -21 -1 -5
-17 12 -13 34 -18 70 -18 60 0 100 24 142 85 27 39 29 76 7 131 -12 30 -135
159 -151 159 -35 0 -104 98 -116 163 -7 35 -21 51 -23 25z"/>
<path d="M12145 15188 c-35 -31 -39 -77 -10 -113 59 -75 178 4 133 88 -27 51
-80 62 -123 25z"/>
<path d="M6440 15190 c-1 -3 -3 -12 -5 -20 -2 -8 -11 -33 -21 -55 -10 -22 -18
-42 -19 -45 -13 -43 -164 -358 -175 -365 -4 -3 -27 43 -51 101 -24 58 -46 107
-49 109 -3 2 -32 -41 -63 -95 -32 -54 -80 -121 -108 -149 -59 -60 -167 -115
-259 -134 l-65 -14 35 -17 c19 -9 48 -24 64 -32 24 -14 38 -14 83 -5 122 24
193 86 263 229 25 50 48 91 51 91 9 1 64 -112 63 -129 -1 -8 -2 -20 -3 -26 -1
-10 -59 -104 -71 -114 -7 -6 -137 -179 -194 -258 -44 -61 -47 -62 112 18 113
56 160 96 234 200 48 69 119 199 157 290 l23 55 16 -35 c9 -19 33 -71 54 -115
98 -213 196 -322 366 -406 61 -31 114 -54 117 -51 4 4 -41 71 -82 122 -7 8
-48 65 -93 125 -44 61 -84 115 -89 121 -33 41 -35 74 -8 134 36 83 40 82 88
-16 45 -91 116 -174 174 -205 43 -23 120 -40 154 -34 16 3 48 17 71 32 l41 27
-69 18 c-159 38 -260 118 -352 278 -47 81 -75 111 -75 83 0 -10 -45 -120 -62
-153 -7 -14 -13 -31 -13 -38 0 -31 -26 9 -85 132 -34 72 -75 160 -90 196 -15
36 -33 79 -40 95 -7 17 -16 37 -18 45 -3 8 -6 13 -7 10z"/>
<path d="M14035 14900 c45 -71 54 -113 50 -234 -4 -113 -7 -138 -29 -236 -26
-112 36 -227 141 -264 67 -24 133 -1 155 54 10 23 12 93 4 130 -32 161 -108
320 -225 470 -34 44 -108 120 -117 120 -2 0 7 -18 21 -40z"/>
<path d="M12172 14894 c-28 -20 -30 -69 -3 -84 31 -16 59 -12 75 12 21 30 20
44 -4 68 -24 24 -38 25 -68 4z"/>
<path d="M15610 14817 c0 -25 41 -77 61 -77 8 0 -31 66 -58 99 -1 2 -3 -7 -3
-22z"/>
<path d="M15930 14833 c1 -14 27 -43 33 -37 7 7 -14 44 -25 44 -5 0 -8 -3 -8
-7z"/>
<path d="M16051 14649 c0 -8 9 -27 20 -44 10 -16 24 -42 30 -57 6 -16 15 -28
20 -28 5 0 9 -7 9 -15 0 -8 7 -15 16 -15 13 0 13 5 -4 33 -11 17 -30 51 -42
74 -24 47 -50 75 -49 52z"/>
<path d="M4285 14373 c-16 -27 -47 -77 -68 -113 -59 -99 -197 -382 -197 -404
0 -4 -7 -22 -15 -39 -19 -41 -86 -245 -90 -277 -2 -14 -9 -40 -14 -59 -6 -19
-9 -36 -7 -38 9 -9 72 142 123 292 52 152 197 458 226 477 7 4 9 8 5 8 -9 0
68 156 81 165 10 6 4 35 -8 35 -3 0 -19 -21 -36 -47z"/>
<path d="M6381 14339 c-103 -62 -60 -219 59 -219 106 0 158 138 78 205 -16 14
-33 26 -36 26 -42 7 -77 3 -101 -12z"/>
<path d="M14345 14096 c-41 -18 -62 -52 -62 -104 0 -35 5 -49 29 -72 16 -17
39 -31 51 -31 12 -1 29 -2 37 -3 8 -1 28 5 43 14 71 38 81 129 20 183 -28 24
-81 30 -118 13z"/>
<path d="M16176 14022 c-2 -4 6 -22 19 -40 15 -21 26 -29 30 -22 4 6 0 19 -9
29 -9 10 -14 20 -11 23 3 3 -1 8 -9 11 -9 4 -17 3 -20 -1z"/>
<path d="M14145 13843 c-17 -38 -8 -63 26 -75 40 -15 77 50 47 80 -18 18 -65
15 -73 -5z"/>
<path d="M4618 13818 c-23 -36 -49 -108 -39 -108 12 0 40 44 56 91 15 43 6 52
-17 17z"/>
<path d="M5232 13709 c-82 -17 -128 -108 -96 -188 44 -111 231 -60 239 66 6
80 -65 140 -143 122z"/>
<path d="M4004 13637 c-8 -21 2 -35 16 -21 5 5 6 15 0 24 -8 12 -10 12 -16 -3z"/>
<path d="M14699 13499 c-1 -8 -2 -27 -4 -44 -4 -37 36 -156 85 -255 40 -81 84
-149 192 -302 37 -53 68 -100 68 -103 0 -4 -6 -12 -12 -19 -7 -7 -40 -43 -73
-80 -33 -37 -79 -89 -102 -114 l-41 -46 -39 26 c-110 74 -191 191 -220 318
l-12 55 4 -80 c12 -193 53 -310 143 -404 47 -48 48 -52 36 -80 -7 -17 -15 -43
-18 -58 -3 -15 -8 -41 -12 -58 -8 -34 -8 -208 0 -245 13 -62 24 -98 34 -116
10 -18 11 -17 16 6 3 14 8 43 10 65 7 55 16 97 22 115 3 8 8 26 10 39 3 12 22
61 44 108 35 74 42 83 57 73 40 -24 75 -48 154 -104 46 -33 92 -59 102 -59 10
1 62 33 115 70 142 101 149 104 159 90 37 -51 97 -204 107 -273 3 -21 8 -57
12 -79 9 -67 15 -81 25 -63 4 8 13 37 19 64 33 145 30 262 -11 394 l-20 65 45
48 c56 58 91 126 116 222 20 77 38 272 19 205 -38 -136 -115 -246 -223 -318
l-38 -26 -25 29 c-48 56 -168 189 -185 204 -20 17 -24 41 -8 41 6 0 10 5 10
11 0 7 15 30 33 53 71 87 257 386 240 386 -3 0 -1 6 5 13 5 6 21 46 35 87 24
75 27 150 4 150 -6 0 -8 -3 -5 -6 7 -6 -44 -142 -68 -181 -33 -53 -69 -108
-75 -113 -3 -3 -12 -16 -19 -29 -7 -14 -17 -30 -21 -35 -5 -6 -35 -45 -67 -86
-32 -41 -87 -101 -122 -132 l-63 -58 -55 53 c-43 41 -127 140 -180 212 -86
118 -180 292 -189 353 -2 20 -13 28 -14 11z m506 -921 c28 -39 65 -87 82 -107
39 -44 40 -51 7 -82 -14 -13 -51 -57 -81 -96 -34 -45 -63 -73 -75 -73 -11 0
-32 19 -51 47 -17 25 -53 69 -79 97 -26 28 -48 54 -48 57 0 3 25 37 55 75 31
38 70 90 88 115 17 26 36 45 42 42 5 -2 33 -36 60 -75z"/>
<path d="M15083 13428 c-86 -61 -43 -188 63 -188 50 0 105 59 98 104 -7 49
-16 65 -41 81 -42 28 -83 29 -120 3z"/>
<path d="M5135 13259 c-95 -23 -255 -128 -255 -166 0 -6 -4 -13 -8 -15 -11 -4
-59 -107 -66 -139 -3 -13 -8 -35 -11 -49 -22 -83 -7 -171 38 -232 26 -36 114
-95 153 -103 50 -12 127 -11 170 2 166 46 249 175 194 300 -47 108 -147 147
-185 73 -8 -16 -15 -30 -15 -32 0 -2 24 -3 53 -2 73 1 86 -4 108 -40 52 -85
-6 -184 -116 -201 -54 -8 -98 10 -155 61 -67 61 -85 104 -84 211 1 53 5 78 17
91 10 10 17 23 17 28 1 34 134 135 196 149 10 2 33 8 49 13 51 15 81 5 170
-57 129 -90 170 -165 167 -306 -1 -75 -10 -114 -43 -182 -33 -69 -103 -139
-173 -173 -89 -43 -144 -46 -256 -17 -114 29 -162 27 -238 -10 -49 -24 -60
-36 -84 -84 -26 -53 -27 -57 -14 -106 33 -125 117 -173 244 -139 38 10 52 11
53 3 0 -7 0 -39 1 -73 0 -74 24 -109 90 -129 48 -14 81 -6 124 33 23 19 51 70
49 87 -9 81 -46 134 -109 155 -38 12 -83 9 -179 -14 -113 -27 -167 -6 -182 72
-25 131 97 214 248 168 25 -7 48 -12 51 -9 2 3 13 0 23 -5 10 -6 34 -13 53
-16 19 -3 46 -9 60 -12 14 -4 48 -7 77 -7 67 0 147 45 228 129 78 80 78 79
107 153 60 148 20 307 -108 435 -45 45 -139 110 -174 121 -14 4 -29 11 -35 15
-31 22 -189 34 -250 19z m465 -335 c0 -8 -4 -14 -10 -14 -5 0 -10 9 -10 21 0
11 5 17 10 14 6 -3 10 -13 10 -21z"/>
<path d="M3647 13167 c-11 -29 -9 -43 4 -30 6 6 9 19 7 29 -3 18 -4 18 -11 1z"/>
<path d="M3737 13174 c-8 -8 1 -24 12 -24 4 0 8 7 8 15 0 16 -9 20 -20 9z"/>
<path d="M3736 13112 c-7 -12 -36 -144 -43 -199 -3 -28 -1 -43 6 -43 6 0 11 5
11 12 0 11 33 129 48 168 11 33 11 48 -2 59 -9 7 -17 8 -20 3z"/>
<path d="M14712 12938 c-48 -31 -59 -113 -20 -151 38 -39 82 -46 128 -22 45
23 63 66 50 116 -19 70 -96 98 -158 57z"/>
<path d="M15455 12927 c-40 -40 -46 -81 -18 -128 50 -85 181 -48 191 54 4 47
-40 95 -95 103 -39 6 -45 4 -78 -29z"/>
<path d="M3520 12621 c-7 -15 -7 -21 0 -21 12 0 25 28 17 36 -3 3 -10 -4 -17
-15z"/>
<path d="M16828 11914 c-9 -8 7 -57 20 -62 9 -3 9 5 0 30 -13 39 -13 40 -20
32z"/>
<path d="M16925 11593 c3 -8 5 -26 5 -40 0 -37 13 -20 16 21 2 23 -1 33 -12
33 -9 0 -13 -6 -9 -14z"/>
<path d="M15586 11565 c-15 -16 -26 -31 -26 -35 0 -4 -26 -19 -57 -35 -189
-91 -182 -86 -210 -142 -22 -45 -25 -62 -20 -111 4 -31 11 -73 17 -92 16 -56
13 -65 -39 -93 -57 -32 -91 -33 -146 -8 -48 22 -79 54 -98 101 -15 37 -14 59
2 129 5 25 6 52 1 65 -8 20 -9 19 -9 -5 -1 -15 -13 -57 -27 -95 -21 -55 -25
-83 -23 -141 3 -65 1 -76 -24 -110 -15 -21 -38 -54 -50 -73 -31 -47 -64 -65
-98 -52 -21 8 -33 27 -55 84 -37 98 -47 106 -39 33 10 -98 15 -119 33 -140 72
-86 156 -68 187 40 16 53 48 105 65 105 5 0 31 -14 57 -31 41 -26 54 -30 92
-25 51 7 107 38 171 95 l45 39 30 -22 c57 -44 98 -49 188 -26 39 10 89 21 109
24 21 3 41 6 45 7 22 4 42 -3 63 -21 13 -11 27 -20 32 -20 18 0 50 -93 50
-145 2 -131 -118 -245 -261 -249 -50 -1 -69 6 -171 58 -63 32 -130 68 -149 78
-152 86 -345 -45 -343 -232 1 -70 20 -115 69 -161 62 -60 134 -89 229 -94 56
-3 127 22 137 49 8 21 4 20 -80 -8 -77 -26 -98 -23 -150 26 -24 22 -60 100
-64 138 -9 89 49 178 131 200 52 15 52 15 106 7 51 -7 83 -21 162 -70 85 -53
152 -77 215 -77 160 0 264 166 232 370 -8 54 -16 69 -71 141 -29 38 -61 65
-103 87 -52 29 -68 32 -128 31 -136 -4 -191 22 -210 99 -24 94 -1 141 104 212
74 50 123 103 110 117 -3 3 -17 -7 -31 -22z"/>
<path d="M16862 11539 c-1 -23 2 -38 6 -34 9 9 11 75 2 75 -4 0 -8 -18 -8 -41z"/>
<path d="M4480 11539 c0 -6 21 -44 46 -86 42 -69 132 -248 143 -283 12 -41 2
-101 -24 -145 -15 -26 -25 -48 -23 -49 1 -2 35 -15 73 -30 66 -26 120 -59 155
-95 22 -23 100 -129 100 -137 0 -3 8 -18 19 -32 52 -74 201 -411 201 -455 0
-26 -9 -21 -84 51 -73 68 -196 152 -224 152 -15 -1 -15 -2 2 -12 27 -15 230
-220 287 -288 96 -116 258 -337 282 -385 13 -27 42 -90 62 -140 43 -102 43
-101 51 -92 15 15 15 93 0 160 -20 88 -78 206 -174 351 -40 60 -88 143 -108
185 -19 42 -38 83 -43 91 -102 192 -221 433 -216 438 4 4 16 -4 27 -18 49 -61
199 -226 328 -359 67 -69 99 -112 123 -162 18 -38 35 -69 39 -69 9 0 -15 87
-37 135 -38 83 -112 184 -268 369 -89 105 -171 202 -182 215 -11 13 -25 29
-31 35 -21 22 -211 262 -235 296 -13 19 -27 37 -30 40 -3 3 -44 57 -90 120
-46 63 -89 121 -96 128 -7 7 -20 26 -30 42 -17 30 -43 47 -43 29z"/>
<path d="M4409 11174 c-29 -36 -18 -78 26 -94 51 -19 96 50 59 91 -21 23 -67
25 -85 3z"/>
<path d="M14789 10514 c-6 -117 38 -233 118 -310 51 -50 67 -58 278 -145 11
-4 48 -18 82 -29 74 -26 95 -45 123 -106 45 -104 169 -173 256 -144 47 16 120
82 146 133 34 69 18 181 -39 267 -28 43 -30 34 -3 -24 30 -63 31 -107 5 -163
-26 -56 -46 -76 -98 -98 -51 -21 -105 -19 -157 8 -66 33 -75 58 -42 121 33 64
34 73 16 107 -23 45 -40 49 -129 27 -151 -37 -305 -6 -409 82 -90 77 -126 137
-131 220 -4 60 -14 94 -16 54z"/>
<path d="M15669 10256 c8 -9 24 -22 35 -28 19 -10 20 -10 7 6 -8 9 -24 22 -35
28 -19 10 -20 10 -7 -6z"/>
<path d="M5671 10029 c-71 -28 -93 -114 -43 -170 34 -38 81 -45 129 -17 73 44
63 150 -18 182 -22 9 -40 16 -42 15 -1 0 -13 -5 -26 -10z"/>
<path d="M15193 9829 c-24 -9 -35 -34 -28 -68 5 -27 3 -24 29 -38 39 -21 86
21 71 65 -9 28 -47 50 -72 41z"/>
<path d="M16690 9333 c0 -22 2 -25 10 -13 13 20 13 40 0 40 -5 0 -10 -12 -10
-27z"/>
<path d="M15284 9318 c2 -7 8 -26 14 -41 7 -16 12 -34 12 -42 0 -8 4 -16 9
-19 19 -12 32 -238 18 -298 -4 -16 -9 -39 -12 -52 -8 -40 -54 -136 -65 -136
-5 0 -10 -7 -10 -16 0 -18 -141 -164 -159 -164 -6 0 -11 -4 -11 -8 0 -8 -108
-65 -147 -76 -185 -56 -416 -30 -566 65 -60 39 -77 53 -77 68 0 6 -4 11 -9 11
-14 0 -71 62 -71 77 0 6 -3 13 -8 15 -7 3 -70 118 -71 128 0 3 -5 19 -11 35
-34 85 -36 251 -5 350 23 77 21 98 -8 65 -14 -17 -49 -76 -52 -90 -1 -3 -7
-18 -14 -34 -6 -16 -13 -38 -16 -50 -2 -11 -4 -21 -5 -21 -1 0 -3 -17 -5 -39
-2 -21 -6 -41 -9 -43 -2 -2 -21 3 -42 12 -22 9 -55 16 -74 17 -44 0 -120 -30
-120 -48 0 -8 -4 -14 -8 -14 -5 0 -9 -7 -9 -15 0 -19 0 -19 48 5 22 12 44 18
49 15 6 -3 10 -2 10 3 0 15 75 -10 105 -35 26 -20 60 -97 51 -112 -6 -10 39
-138 55 -157 6 -8 9 -14 6 -14 -4 0 9 -30 28 -67 20 -36 33 -68 31 -71 -3 -2
-26 -6 -52 -9 -73 -6 -137 -45 -173 -103 -25 -42 -26 -70 -5 -111 19 -37 22
-35 28 17 2 21 9 51 14 65 14 35 88 71 144 69 24 0 55 0 71 0 25 0 76 -20 101
-41 6 -5 22 -19 36 -30 21 -18 157 -90 193 -102 14 -4 -9 -56 -31 -70 -7 -5
-10 -12 -7 -18 4 -5 1 -9 -4 -9 -6 0 -11 -6 -11 -14 0 -8 -6 -21 -12 -28 -55
-57 -44 -253 17 -314 8 -9 15 -20 15 -25 0 -5 6 -9 13 -9 8 0 22 -9 31 -19 9
-10 29 -21 44 -24 15 -3 37 -7 49 -10 39 -10 34 9 -7 27 -65 29 -120 120 -120
201 0 88 78 203 168 246 50 25 56 27 116 34 83 10 118 17 157 31 54 18 67 18
66 -3 -1 -26 13 -84 29 -119 13 -29 75 -93 92 -95 4 0 14 -2 22 -4 62 -13 80
-12 109 6 34 21 42 44 12 34 -40 -12 -58 -13 -93 0 -48 16 -66 35 -76 82 -21
91 2 163 65 209 40 29 61 50 105 105 92 114 121 149 124 149 1 0 9 -6 16 -12
41 -38 99 -48 155 -27 42 15 126 109 98 109 -3 0 -15 -9 -27 -20 -28 -26 -101
-59 -113 -52 -5 4 -12 7 -15 7 -62 8 -81 45 -73 142 16 204 0 381 -39 431 -6
6 -8 12 -4 12 8 0 -21 48 -48 78 -22 24 -36 29 -32 10z"/>
<path d="M6465 9263 c-167 -35 -275 -156 -269 -303 3 -88 34 -184 34 -109 1
125 63 203 194 243 110 35 264 4 338 -67 83 -81 112 -249 67 -384 -38 -114
-93 -151 -219 -148 -95 2 -117 21 -57 50 94 44 176 172 172 269 -4 95 -57 156
-144 163 -86 8 -156 -63 -153 -156 1 -18 7 -40 13 -47 17 -21 21 -11 9 20 -14
39 14 93 56 105 44 12 76 4 112 -29 24 -21 32 -39 37 -81 11 -91 -7 -146 -64
-197 -80 -72 -133 -75 -307 -19 -282 92 -320 98 -529 87 -110 -6 -261 -59
-380 -132 -65 -40 -193 -171 -213 -217 -16 -38 -25 -71 -18 -71 3 0 46 42 98
93 99 99 147 129 253 154 56 14 176 18 270 9 22 -2 74 -7 115 -10 87 -8 107
-11 175 -26 28 -5 59 -12 70 -14 11 -2 58 -11 105 -19 151 -29 173 -31 280
-32 137 0 163 12 294 140 78 78 94 98 119 154 37 84 41 197 11 301 -14 49 -81
155 -129 206 -13 14 -66 38 -123 57 -39 14 -170 19 -217 10z"/>
<path d="M7117 8699 c-4 -13 -7 -35 -7 -48 0 -33 -32 -131 -42 -131 -4 0 -8
-6 -8 -14 0 -20 -87 -114 -133 -143 -42 -27 -132 -60 -182 -68 -16 -3 -54 -10
-83 -16 -79 -16 -121 -18 -182 -8 -30 5 -69 11 -87 14 -17 2 -114 28 -215 56
-174 49 -187 51 -268 46 -88 -6 -187 -36 -229 -68 -28 -23 -25 -23 25 -6 82
29 170 15 489 -78 50 -14 106 -28 125 -30 19 -3 51 -8 70 -12 44 -9 255 -10
295 -1 38 8 58 15 120 44 162 77 296 239 323 393 11 59 1 117 -11 70z"/>
<path d="M5560 8369 c-90 -16 -104 -20 -149 -52 -71 -50 -121 -98 -152 -146
-24 -38 -29 -55 -29 -110 0 -85 16 -112 22 -39 6 77 32 106 173 198 33 21 76
53 95 70 19 18 48 42 65 55 16 13 27 26 25 28 -3 2 -25 0 -50 -4z"/>
<path d="M7500 8117 c0 -2 7 -19 16 -36 11 -23 15 -49 12 -87 -3 -30 -1 -54 4
-54 5 0 7 3 5 8 -2 4 1 20 8 37 l13 30 16 -38 c8 -21 17 -48 18 -60 2 -12 7
-27 11 -34 4 -7 8 -53 8 -103 0 -80 -3 -99 -26 -146 -27 -56 -85 -111 -185
-178 -63 -41 -74 -44 -65 -16 3 11 4 20 1 20 -2 0 -10 -17 -17 -37 -6 -21 -26
-60 -44 -88 -36 -57 -52 -96 -60 -143 -8 -50 4 -59 34 -26 14 16 75 60 135 98
125 80 180 132 218 207 46 94 53 133 52 284 0 123 -26 209 -89 294 -38 52 -65
80 -65 68z"/>
<path d="M13185 7944 c-38 -41 -80 -92 -92 -112 -48 -80 -76 -258 -57 -367 17
-100 77 -303 119 -400 65 -150 97 -288 81 -351 -7 -27 -7 -27 -69 38 -34 36
-78 82 -98 104 -47 51 -83 82 -141 122 -53 37 -180 98 -218 106 -14 3 -40 9
-57 15 -20 6 -33 6 -33 0 0 -5 6 -9 14 -9 8 0 16 -3 18 -7 2 -5 30 -26 63 -48
80 -54 144 -118 246 -250 117 -150 152 -207 184 -300 15 -44 30 -83 34 -88 4
-4 29 23 56 60 45 61 166 188 272 285 33 29 216 171 325 250 12 9 32 24 43 33
11 8 81 60 155 116 145 108 176 134 120 102 -19 -11 -84 -49 -145 -83 -197
-113 -485 -299 -582 -377 -23 -18 -46 -33 -52 -33 -6 0 -11 -5 -11 -12 0 -8
-3 -9 -10 -2 -6 6 -6 30 -1 64 12 73 7 293 -9 355 -6 28 -13 55 -14 60 -6 27
-70 211 -76 220 -5 6 -8 13 -9 18 0 4 -16 58 -37 120 -31 95 -37 125 -37 202
-1 106 17 150 84 208 31 28 37 37 23 37 -11 0 -50 -33 -89 -76z"/>
<path d="M7486 7844 c-35 -87 -27 -94 9 -9 15 36 25 68 23 71 -3 3 -18 -25
-32 -62z"/>
<path d="M5010 7757 c0 -9 16 -34 35 -55 30 -33 34 -34 35 -16 0 15 -8 24 -25
28 -14 4 -24 10 -21 15 3 4 -1 17 -9 27 -13 18 -14 18 -15 1z"/>
<path d="M13562 7685 c-63 -53 -61 -169 2 -211 53 -34 170 -10 195 40 60 122
-96 256 -197 171z"/>
<path d="M7929 7693 c-1 -5 -2 -19 -3 -33 -6 -76 -54 -175 -113 -234 -32 -32
-80 -63 -143 -94 -52 -25 -97 -47 -99 -49 -11 -8 11 -15 51 -17 103 -6 196 67
269 210 37 72 43 95 46 154 1 39 0 70 -2 70 -3 0 -6 -3 -6 -7z"/>
<path d="M5110 7611 c0 -11 6 -19 36 -54 5 -7 19 -27 30 -46 18 -32 43 -65 92
-119 12 -14 22 -30 22 -37 0 -15 58 -70 66 -62 4 3 -11 26 -32 50 -22 24 -70
89 -107 144 -69 102 -107 146 -107 124z"/>
<path d="M15965 7560 c-14 -16 -15 -20 -4 -20 16 0 39 19 39 32 0 14 -16 9
-35 -12z"/>
<path d="M15916 7487 c-3 -12 -15 -32 -26 -45 -11 -12 -18 -22 -15 -22 3 0 -2
-11 -11 -25 -22 -34 0 -32 24 3 34 47 61 100 55 106 -12 12 -21 6 -27 -17z"/>
<path d="M15973 7478 c-19 -25 -24 -38 -15 -38 5 0 17 11 26 25 17 25 7 36
-11 13z"/>
<path d="M15736 7220 c-25 -38 -46 -75 -46 -82 0 -19 51 39 83 94 43 74 14 65
-37 -12z"/>
<path d="M5410 7223 c0 -21 37 -67 63 -76 20 -8 22 -3 4 15 -6 7 -24 28 -40
46 -21 26 -27 29 -27 15z"/>
<path d="M15784 7201 c-5 -10 -21 -34 -36 -52 -90 -112 -176 -221 -211 -269
-22 -30 -43 -57 -47 -60 -3 -3 -19 -23 -36 -45 -16 -22 -37 -49 -46 -59 -10
-11 -18 -25 -18 -30 0 -12 84 74 140 144 19 24 40 48 45 54 6 6 53 67 104 136
93 125 139 200 123 200 -5 0 -13 -8 -18 -19z"/>
<path d="M6770 7188 c-57 -8 -150 -45 -150 -60 0 -5 14 -1 31 8 19 9 69 18
124 21 119 7 170 -8 288 -89 49 -33 90 -58 92 -56 2 1 -6 23 -18 48 -26 52
-90 105 -148 120 -53 15 -150 18 -219 8z"/>
<path d="M7647 7153 c-3 -2 1 -19 8 -37 8 -19 15 -75 16 -132 3 -205 32 -294
124 -389 146 -149 323 -217 499 -191 56 8 70 26 21 26 -54 0 -92 25 -165 112
-86 100 -99 113 -54 48 21 -30 61 -76 87 -103 27 -27 46 -52 42 -55 -10 -11
-129 19 -190 48 -66 31 -145 95 -145 116 0 8 -4 14 -9 14 -13 0 -41 110 -46
186 -3 38 -7 78 -9 89 -5 31 4 38 27 18 13 -11 9 -2 -10 22 -17 22 -41 60 -53
85 -12 24 -34 59 -49 78 -27 33 -85 74 -94 65z"/>
<path d="M7390 7123 c-46 -18 -68 -76 -51 -134 14 -46 65 -77 118 -71 37 4 78
49 86 93 6 33 -16 84 -45 102 -24 15 -82 20 -108 10z"/>
<path d="M15595 7043 c-15 -16 -37 -49 -50 -74 -23 -44 -79 -113 -155 -189
-81 -80 -130 -165 -54 -92 50 47 134 148 134 160 0 6 9 14 21 17 11 4 18 9 16
12 -3 2 24 40 59 84 35 44 64 86 64 94 0 21 -5 19 -35 -12z"/>
<path d="M12152 6949 c-25 -9 -334 -315 -427 -423 -33 -39 -67 -77 -75 -86 -8
-9 -33 -38 -54 -65 -22 -28 -47 -58 -55 -67 -9 -10 -23 -26 -32 -35 -9 -10
-39 -49 -68 -88 -29 -38 -59 -78 -67 -88 -8 -9 -14 -20 -14 -23 0 -3 -10 -20
-22 -37 -13 -17 -50 -82 -83 -144 -34 -62 -67 -121 -75 -131 -8 -10 -26 -39
-40 -65 -35 -67 -46 -43 -20 44 31 104 258 550 311 613 19 22 100 137 133 189
22 34 31 58 26 67 -6 9 -11 7 -20 -11 -7 -13 -27 -40 -44 -60 -17 -19 -50 -58
-72 -85 -23 -27 -70 -78 -104 -114 -159 -166 -264 -281 -321 -349 -16 -19 -31
-32 -35 -28 -4 3 19 59 51 124 67 137 76 192 37 224 -19 15 -28 17 -45 7 -86
-45 -179 -175 -248 -348 -45 -114 -54 -123 -124 -129 -5 -1 0 -10 11 -22 20
-19 23 -20 58 -5 20 8 36 19 36 24 0 19 130 187 154 199 30 16 39 5 22 -28
-13 -27 -41 -125 -50 -179 -20 -120 -26 -219 -14 -226 4 -3 8 -1 8 4 0 13 93
167 161 267 104 154 156 192 114 85 -13 -33 -25 -64 -26 -68 -2 -10 -6 -21
-19 -63 -6 -20 -13 -45 -15 -55 -2 -10 -21 -82 -41 -159 -20 -77 -37 -147 -39
-155 -2 -8 -9 -28 -15 -45 -6 -16 -13 -37 -15 -45 -2 -8 -15 -46 -29 -84 -14
-37 -26 -76 -26 -85 1 -15 15 17 73 169 30 76 68 140 131 218 30 37 84 114
121 172 70 108 90 135 210 280 121 146 232 267 238 259 2 -2 12 -26 22 -54 34
-93 87 -155 167 -196 l43 -22 -44 44 c-85 85 -110 183 -76 297 27 90 186 352
262 431 18 19 33 38 33 42 0 4 6 14 13 21 15 15 50 88 45 93 -1 1 -13 -1 -26
-6z"/>
<path d="M6895 6935 c-179 -43 -329 -154 -400 -296 -36 -70 -43 -99 -24 -99 5
0 8 4 5 8 -11 19 62 76 114 88 19 4 37 8 40 9 3 1 31 5 63 9 31 5 57 13 57 18
0 5 -3 7 -7 5 -5 -3 -31 -7 -58 -11 -28 -3 -71 -12 -97 -20 -26 -7 -49 -11
-52 -8 -7 6 31 60 61 87 55 51 143 112 143 99 0 -4 7 0 17 7 21 18 167 18 208
-1 17 -7 32 -14 35 -15 3 -1 39 -17 80 -37 66 -32 72 -37 53 -44 -26 -11 162
-10 223 1 38 7 94 39 84 48 -3 3 -18 7 -35 10 -16 3 -91 36 -166 74 -75 38
-143 70 -150 71 -75 8 -153 7 -194 -3z"/>
<path d="M8751 6652 c-34 -87 -63 -164 -65 -172 -1 -8 -5 -24 -9 -35 -23 -69
-44 -210 -45 -300 -1 -112 11 -166 55 -248 27 -50 159 -197 176 -197 5 0 21
-8 35 -19 15 -10 69 -40 121 -67 184 -96 251 -194 260 -381 2 -36 27 -27 39
15 22 71 32 117 32 146 0 36 41 108 72 128 29 19 82 36 133 43 22 3 51 8 65
11 23 4 36 6 104 18 66 12 124 68 146 143 15 50 3 111 -38 188 -26 49 -72 108
-79 102 -1 -2 7 -23 18 -47 26 -54 29 -143 5 -186 -40 -74 -100 -114 -236
-158 -41 -13 -102 -37 -135 -52 -33 -16 -64 -31 -68 -33 -15 -6 -1 65 22 111
11 24 39 66 61 93 22 28 43 55 48 60 4 6 41 53 82 105 100 126 123 163 149
240 50 143 26 321 -54 393 -35 32 -99 57 -145 57 -66 0 -115 -38 -151 -115
-23 -50 -25 -145 -3 -186 21 -41 26 -33 15 23 -9 51 5 107 42 164 46 71 121
64 161 -14 74 -146 67 -302 -22 -481 -40 -79 -220 -361 -231 -361 -6 0 -66
108 -145 263 -36 70 -40 86 -41 152 l0 73 -20 -31 c-21 -33 -36 -145 -24 -182
4 -11 12 -38 19 -60 7 -21 32 -81 56 -132 65 -138 63 -140 -40 -50 -17 15 -35
31 -41 35 -109 85 -205 175 -241 227 -94 137 -121 339 -78 590 1 11 5 34 8 50
3 17 12 54 20 83 8 29 14 53 14 55 0 1 5 22 12 46 22 84 3 49 -59 -107z"/>
<path d="M7563 6757 c-22 -32 -54 -112 -48 -119 1 -1 6 -25 10 -53 13 -101
125 -269 206 -309 40 -20 49 -15 13 8 -45 30 -83 78 -121 154 -34 68 -37 79
-36 160 0 48 3 108 6 135 2 26 1 49 -2 52 -4 2 -16 -11 -28 -28z"/>
<path d="M15213 6566 c-45 -33 -58 -55 -21 -35 24 13 72 58 67 63 -2 2 -23
-10 -46 -28z"/>
<path d="M9003 6467 c-59 -26 -24 -123 47 -134 23 -3 60 45 60 79 0 46 -60 77
-107 55z"/>
<path d="M15092 6449 c-17 -22 -20 -29 -9 -29 16 0 51 47 39 53 -4 3 -17 -9
-30 -24z"/>
<path d="M15018 6379 c-16 -11 -28 -25 -28 -31 0 -6 -8 -17 -17 -24 -10 -7
-15 -15 -12 -19 4 -3 18 5 32 19 15 14 30 26 35 26 5 0 14 11 20 25 14 30 6
31 -30 4z"/>
<path d="M9828 6379 c-25 -14 -22 -36 6 -54 19 -13 29 -14 45 -5 24 12 24 11
11 44 -10 27 -33 33 -62 15z"/>
<path d="M12024 6365 c-144 -60 -99 -279 56 -277 131 2 194 168 95 254 -14 12
-33 23 -43 25 -51 10 -81 10 -108 -2z"/>
<path d="M14819 6187 c-13 -13 -53 -47 -88 -77 -35 -30 -76 -65 -90 -78 -14
-13 -45 -40 -69 -60 -24 -20 -65 -56 -90 -79 -26 -24 -50 -43 -54 -43 -5 0 -8
-5 -8 -10 0 -14 31 3 100 54 89 67 144 113 211 177 21 21 40 34 43 31 3 -3 6
0 6 7 0 6 12 24 28 39 40 41 56 62 45 62 -6 0 -21 -10 -34 -23z"/>
<path d="M10618 6048 c-31 -25 -38 -51 -20 -80 18 -31 44 -40 77 -28 30 11 38
26 37 62 -1 48 -57 75 -94 46z"/>
<path d="M9246 6018 c-22 -30 -20 -60 4 -86 54 -58 128 16 90 89 -15 28 -74
26 -94 -3z"/>
<path d="M9290 4992 c0 -6 8 -10 18 -10 9 1 36 -2 60 -6 28 -5 42 -4 42 3 0 6
-10 11 -22 11 -13 0 -40 3 -60 6 -24 4 -38 3 -38 -4z"/>
<path d="M9560 4960 c-14 -5 -18 -8 -9 -9 9 -1 32 -4 50 -7 32 -6 33 -6 14 9
-22 18 -21 18 -55 7z"/>
</g>
</svg>
